<svg id="Web" xmlns="http://www.w3.org/2000/svg" viewBox="0 0 428.65033 257.83154"><defs><style>.cls-1{fill:#e6e9eb;}.cls-2{fill:#ced3d7;}.cls-3{fill:#9aa4ad;}.cls-4{fill:#4d5860;}.cls-5{fill:#c6cacf;}.cls-6{fill:#ffc335;}.cls-11,.cls-7{fill:#fff;}.cls-8{fill:#edeff2;}.cls-9{fill:#ffdb86;}.cls-10{fill:#bf9228;}.cls-11{stroke:#c6cacf;stroke-miterlimit:10;}</style></defs><title>401+403</title><path class="cls-1" d="M346.91211,46.0632V150.37209H295.48452V256.8465h3.73317v-.07291l.42289.4229,23.06568-23.06522,23.59065,23.59019.875-.875H349.928v-.29894h.71729v-.07292l.42289.4229,23.06568-23.06613,23.59065,23.59111.875-.875h2.75612V46.0632ZM322.70626,183.421,345.422,206.13711l-22.71569,22.71523-22.71569-22.71523Zm-23.48857,18.21v-41.6989L320.0668,180.7815ZM350.64528,97.32126V55.623l20.84911,20.84911Zm23.48857-18.20964,22.71569,22.71569L374.13385,124.543l-22.71569-22.71569Zm-23.48857,27.22173,20.84911,20.84911-20.84911,20.84911Zm46.97714,48.02072-23.48857,23.48811-23.48857-23.48811v-.24882h46.97714Zm-46.97714,5.27881,20.84911,20.84876-20.84911,20.84877Zm2.9384-9.26079,20.55017-20.55017L394.684,150.37209ZM346.19483,201.631,325.34572,180.7815l20.84911-20.84945Zm27.939-18.50984,22.71569,22.71523-22.71569,22.71615-22.71569-22.71615Zm2.63946-2.63947,20.84911-20.84876v41.69753Zm0-53.29918,20.84911-20.84911v41.69822Zm20.84911-29.8612L376.77331,76.47215,397.62242,55.623Zm0-47.5249v.54776L374.13385,73.83269,350.64528,50.34412v-.54776ZM346.19483,154.10525v.54776l-23.48857,23.489-23.48857-23.489v-.54776Zm-46.97714,98.23521V210.643L320.0668,231.4918ZM346.19483,210.643v41.69742L325.34572,231.4918Zm4.45045,41.39847v-41.699L371.49439,231.192Zm46.97714-41.699v41.699L376.77331,231.192Z"/><polygon class="cls-2" points="299.218 256.847 295.485 256.847 295.485 154.105 286.54 154.105 286.54 256.847 282.807 256.847 282.807 150.372 299.218 150.372 299.218 256.847"/><polygon class="cls-2" points="350.645 150.372 346.912 150.372 346.912 49.796 337.967 49.796 337.967 150.372 334.234 150.372 334.234 46.063 350.645 46.063 350.645 150.372"/><path class="cls-3" d="M248.77412,221.88092v-1.41406l.033-.033-.033-.033V207.95837l.033-.03295-.033-.033V195.44952l.03272-.03271-.03272-.03272V183.64874H237.03877l-.0332-.0332-.03321.0332H224.53047l-.03345-.03351-.03344.03351H212.02119l-.0332-.03332-.0332.03332H199.51338l-.03345-.03351-.03344.03351h-12.4419l-.0332-.0332-.0332.0332H175.20283v11.73535l-.03271.03272.03271.03271v12.44294l-.033.033.033.03295V220.4007l-.0332.0332.0332.0332v12.44238l-.03271.03272.03271.03271v12.44336l-.03271.03272.03271.03271v11.73536h11.73536l.0332.0332.0332-.0332H199.447l.03321.0332.0332-.0332h12.44141l.0332.03332.0332-.03332h12.44239l.0332.0332.0332-.0332h12.44238l.03321.0332.0332-.0332h11.73535V245.4837l.03272-.03271-.03272-.03272V232.97491l.03272-.03271-.03272-.03272V221.88092Zm-2.707-36.23218L243.26,188.45581l-2.80713-2.80707Zm-7.02832,0,3.51416,3.5141L237.00581,194.71l-5.54736-5.54736,3.51391-3.51386Zm-20.08911,28.53107,5.54736-5.54736,5.54712,5.547-5.54736,5.54737Zm4.84009,6.25409-5.54712,5.54706-5.54712-5.54706,5.54712-5.54706Zm-5.54712-6.96112-5.54712-5.54718,5.54736-5.54737,5.54712,5.54719Zm-.707.707-5.54712,5.54706-5.54712-5.54706,5.54712-5.54718Zm-6.25415,6.25409-5.54712,5.54706-5.54712-5.54706,5.54712-5.54706Zm-5.54712-6.96112-5.54737-5.54736,5.54712-5.54719,5.54737,5.54737Zm-.707.707-5.54712,5.54706-5.54737-5.54737,5.54712-5.547Zm-11.80152-.70734-5.54736-5.54736,5.54687-5.547,5.54761,5.54731Zm5.54737,6.96143-5.54737,5.54736-5.54736-5.54736,5.54736-5.54736Zm-.00025,12.50848-5.54761,5.54731-5.54687-5.547,5.54736-5.54737Zm-4.84009-6.25409,5.54737-5.54736,5.54712,5.54706-5.54737,5.54736Zm11.80152.70673,5.54712,5.54718-5.54737,5.54736-5.54712-5.54718Zm.707-.707,5.54712-5.54706,5.54712,5.54706-5.54712,5.54718Zm11.80127.707,5.54736,5.54736-5.54712,5.54718-5.54736-5.54736Zm.707-.707,5.54712-5.54706,5.54736,5.54736-5.54712,5.54706Zm11.80151.70733,5.54712,5.54718-5.54712,5.54694-5.54712-5.54706Zm-5.54736-6.96142,5.54736-5.54736,5.54737,5.54736-5.54737,5.54736Zm.00024-12.50848,5.54712-5.54706,5.54712,5.54693-5.54712,5.54718Zm0-12.50831,5.54737-5.54748,5.54736,5.54736-5.54761,5.5473Zm4.84009,6.25422-5.54712,5.547-5.54712-5.54718,5.54712-5.54705Zm-11.80127-.70716-5.54736-5.54736,5.54712-5.54706,5.54736,5.54736Zm-.707.707-5.54736,5.54737-5.54737-5.54737,5.54737-5.54736Zm-11.80176-.707-5.54736-5.54736,5.54736-5.54736,5.54737,5.54736Zm-.707.707-5.54712,5.54718-5.5476-5.5473,5.54736-5.54724Zm-11.80176-.70715-5.54711-5.54706,5.54736-5.54736,5.54712,5.54718Zm-.707.707-5.54687,5.547-5.54712-5.54706,5.54687-5.547Zm.00049,12.50842-5.54736,5.54737L181.424,214.1795l5.54736-5.54736Zm0,12.50879-5.54736,5.54737-5.54736-5.54737,5.54736-5.54736Zm-.00049,12.50843-5.54687,5.54681-5.54688-5.54694,5.54688-5.54687Zm.707.707,5.54737,5.54724-5.54688,5.54687-5.54736-5.5473Zm.707-.707,5.5476-5.54731,5.54712,5.54718-5.54736,5.54737Zm11.80175.70691,5.54737,5.54736-5.54737,5.54736-5.54736-5.54736Zm.707-.707,5.54737-5.54736,5.54736,5.54736-5.54736,5.54737Zm11.80176.707,5.54712,5.54705-5.54736,5.54737-5.54712-5.54706Zm.707-.707,5.54712-5.54718,5.54712,5.54706-5.54712,5.54718Zm11.80127.70691,5.54737,5.54706-5.54737,5.5473-5.54712-5.54718Zm.707-.707,5.54712-5.54693,5.54712,5.547-5.54687,5.54694Zm0-12.50818,5.54737-5.54736,5.54712,5.54718-5.54737,5.54736Zm0-12.50879,5.54712-5.54718,5.54737,5.54737-5.54712,5.54718Zm0-12.50817,5.54761-5.54731,5.54688,5.547-5.54737,5.54724Zm2.1001-16.02259-2.80688,2.80683-2.80689-2.80683Zm-7.02783,0,3.51392,3.51386-5.54737,5.54748-5.54736-5.54736,3.51392-3.514Zm-5.481,0-2.80688,2.807-2.80713-2.807Zm-7.02807,0,3.51416,3.514-5.54712,5.54706-5.54737-5.54737,3.51368-3.51367Zm-5.48072,0-2.80664,2.80664-2.80664-2.80664Zm-7.02734,0,3.51367,3.51367-5.54736,5.54737-5.54712-5.54718,3.51392-3.51386Zm-5.481,0-2.80688,2.80683-2.80689-2.80683Zm-7.02783,0,3.51392,3.51386L186.97114,194.71l-5.54711-5.54712,3.51416-3.5141Zm-5.48047,0-2.80713,2.80707-2.80713-2.80707Zm-6.32129.707,2.80713,2.80707L177.20283,191.97Zm0,7.02832,3.51416-3.51422,5.54712,5.54712-5.54687,5.547-3.51441-3.51447Zm0,5.4795,2.80738,2.80743-2.80738,2.80737Zm0,7.02887,3.51441-3.51441,5.54712,5.54706-5.54737,5.54736-3.51416-3.5141Zm0,5.48L180.01,214.1795l-2.80713,2.80713Zm0,7.02826,3.51416-3.51416,5.54737,5.54736-5.54737,5.54736-3.51416-3.51416Zm0,5.48046,2.80713,2.80713-2.80713,2.80713Zm0,7.02832,3.51416-3.51416,5.54737,5.54737-5.54688,5.54687-3.51465-3.51465Zm0,5.4795,2.80762,2.80761-2.80762,2.80762Zm0,7.02929,3.51465-3.51464,5.54688,5.54693-5.54737,5.54736-3.51416-3.51422Zm0,5.4795L180.01,251.705l-2.80713,2.80706Zm.707,6.32129L180.717,252.412l2.80713,2.80707Zm7.02833,0L181.424,251.705l5.54736-5.54737,5.54736,5.54731-3.51416,3.51416Zm5.48046,0,2.80713-2.80713,2.80713,2.80713Zm7.02832,0-3.51416-3.51416,5.54688-5.54688,5.54736,5.54736-3.51367,3.51368Zm5.48047,0,2.80664-2.80665,2.80664,2.80665Zm7.02735,0-3.51368-3.51368,5.54737-5.54736,5.54712,5.54706-3.51416,3.514Zm5.48071,0,2.80713-2.807,2.80688,2.807Zm7.02808,0-3.51392-3.514,5.54736-5.54737,5.54712,5.54719L226.53,255.21906Zm5.48046,0,2.80713-2.80713,2.80713,2.80713Zm7.02832,0-3.51416-3.51416,5.54737-5.54731,5.54736,5.54737-3.51416,3.5141Zm5.48047,0L243.26,252.412l2.80713,2.80707Zm6.32129-.707L243.967,251.705l2.80713-2.80719Zm0-7.02832L243.26,250.99792l-5.54736-5.54736,5.54687-5.54693,3.51465,3.51464Zm0-5.47949-2.80761-2.80762,2.80761-2.80761Zm0-7.0293-3.51465,3.51465-5.54711-5.54706,5.54736-5.54736,3.5144,3.51434Zm0-5.47949-2.80737-2.80731,2.80737-2.80725Zm0-7.02862-3.5144,3.51428-5.54712-5.54718,5.54712-5.54718,3.5144,3.51428Zm0-5.47986-2.80737-2.80725,2.80737-2.80731Zm0-7.02863-3.5144,3.51435-5.54736-5.54737,5.54736-5.54724,3.5144,3.51441Zm0-5.47992-2.80737-2.80737,2.80737-2.80743Zm0-7.02887-3.5144,3.51447-5.54688-5.547,5.54712-5.54712,3.51416,3.51422Zm0-5.47949-2.80713-2.80719,2.80713-2.80707Z"/><path class="cls-3" d="M428.61737,221.88092v-1.41406l.033-.033-.033-.033V207.95837l.033-.03295-.033-.033V195.44952l.03271-.03271-.03271-.03272V183.64874H416.882l-.0332-.0332-.0332.0332h-12.4419l-.03344-.03351-.03345.03351H391.86444l-.03321-.03332-.0332.03332H379.35662l-.03344-.03351-.03345.03351h-12.4419l-.0332-.0332-.0332.0332H355.04608v11.73535l-.03272.03272.03272.03271v12.44294l-.033.033.033.03295V220.4007l-.03321.0332.03321.0332v12.44238l-.03272.03272.03272.03271v12.44336l-.03272.03272.03272.03271v11.73536h11.73535l.0332.0332.0332-.0332h12.44239l.0332.0332.0332-.0332H391.798l.0332.03332.03321-.03332h12.44238l.0332.0332.03321-.0332h12.44238l.0332.0332.0332-.0332h11.73536V245.4837l.03271-.03271-.03271-.03272V232.97491l.03271-.03271-.03271-.03272V221.88092Zm-2.707-36.23218-2.80712,2.80707-2.80713-2.80707Zm-7.02832,0,3.51416,3.5141L416.84906,194.71l-5.54737-5.54736,3.51392-3.51386ZM398.7929,214.17981l5.54737-5.54736,5.54712,5.547L404.34,219.72687Zm4.84009,6.25409-5.54712,5.54706-5.54712-5.54706,5.54712-5.54706Zm-5.54712-6.96112-5.54712-5.54718,5.54737-5.54737,5.54712,5.54719Zm-.707.707-5.54712,5.54706-5.54712-5.54706,5.54712-5.54718Zm-6.25415,6.25409-5.54712,5.54706-5.54712-5.54706,5.54712-5.54706Zm-5.54712-6.96112-5.54736-5.54736,5.54712-5.54719,5.54736,5.54737Zm-.707.707-5.54712,5.54706-5.54736-5.54737,5.54712-5.547Zm-11.80151-.70734-5.54737-5.54736,5.54688-5.547,5.54761,5.54731Zm5.54736,6.96143-5.54736,5.54736-5.54737-5.54736,5.54737-5.54736Zm-.00024,12.50848-5.54761,5.54731-5.54688-5.547,5.54737-5.54737Zm-4.84009-6.25409,5.54736-5.54736,5.54712,5.54706-5.54736,5.54736Zm11.80151.70673,5.54712,5.54718-5.54736,5.54736-5.54712-5.54718Zm.707-.707,5.54712-5.54706,5.54712,5.54706-5.54712,5.54718Zm11.80127.707,5.54737,5.54736-5.54712,5.54718-5.54737-5.54736Zm.707-.707,5.54712-5.54706,5.54737,5.54736-5.54712,5.54706Zm11.80152.70733,5.54712,5.54718-5.54712,5.54694-5.54712-5.54706Zm-5.54737-6.96142,5.54737-5.54736,5.54736,5.54736-5.54736,5.54736Zm.00025-12.50848,5.54712-5.54706,5.54712,5.54693-5.54712,5.54718Zm0-12.50831,5.54736-5.54748L416.142,195.417l-5.5476,5.5473Zm4.84009,6.25422-5.54712,5.547-5.54712-5.54718,5.54712-5.54705Zm-11.80127-.70716-5.54737-5.54736,5.54712-5.54706,5.54737,5.54736Zm-.707.707-5.54736,5.54737-5.54736-5.54737,5.54736-5.54736Zm-11.80175-.707L380.03,195.41681l5.54737-5.54736,5.54736,5.54736Zm-.707.707-5.54712,5.54718-5.54761-5.5473,5.54736-5.54724Zm-11.80176-.70715-5.54712-5.54706,5.54736-5.54736,5.54712,5.54718Zm-.707.707-5.54688,5.547-5.54712-5.54706,5.54688-5.547Zm.00049,12.50842-5.54737,5.54737-5.54736-5.54737,5.54736-5.54736Zm0,12.50879-5.54737,5.54737-5.54736-5.54737,5.54736-5.54736Zm-.00049,12.50843-5.54688,5.54681-5.54687-5.54694,5.54687-5.54687Zm.707.707,5.54736,5.54724-5.54687,5.54687-5.54737-5.5473Zm.707-.707,5.54761-5.54731,5.54712,5.54718-5.54737,5.54737Zm11.80176.70691,5.54736,5.54736-5.54736,5.54736L380.03,245.451Zm.707-.707,5.54736-5.54736,5.54736,5.54736-5.54736,5.54737Zm11.80176.707,5.54712,5.54705-5.54737,5.54737-5.54712-5.54706Zm.707-.707,5.54712-5.54718,5.54712,5.54706-5.54712,5.54718Zm11.80127.70691,5.54736,5.54706-5.54736,5.5473-5.54712-5.54718Zm.707-.707,5.54712-5.54693,5.54712,5.547-5.54688,5.54694Zm0-12.50818,5.54736-5.54736,5.54712,5.54718-5.54736,5.54736Zm0-12.50879,5.54712-5.54718,5.54736,5.54737-5.54712,5.54718Zm0-12.50817,5.54761-5.54731,5.54687,5.547-5.54736,5.54724Zm2.1001-16.02259-2.80689,2.80683-2.80688-2.80683Zm-7.02784,0,3.51392,3.51386-5.54736,5.54748-5.54737-5.54736,3.51392-3.514Zm-5.481,0-2.80689,2.807-2.80713-2.807Zm-7.02808,0,3.51416,3.514-5.54712,5.54706-5.54736-5.54737,3.51367-3.51367Zm-5.48071,0-2.80664,2.80664-2.80664-2.80664Zm-7.02735,0,3.51368,3.51367-5.54737,5.54737-5.54712-5.54718,3.51392-3.51386Zm-5.481,0-2.80689,2.80683-2.80688-2.80683Zm-7.02784,0,3.51392,3.51386L366.81439,194.71l-5.54712-5.54712,3.51416-3.5141Zm-5.48046,0-2.80713,2.80707-2.80713-2.80707Zm-6.32129.707,2.80713,2.80707L357.04608,191.97Zm0,7.02832,3.51416-3.51422,5.54712,5.54712-5.54688,5.547-3.5144-3.51447Zm0,5.4795,2.80737,2.80743-2.80737,2.80737Zm0,7.02887,3.5144-3.51441,5.54712,5.54706-5.54736,5.54736-3.51416-3.5141Zm0,5.48,2.80713,2.80706-2.80713,2.80713Zm0,7.02826,3.51416-3.51416,5.54736,5.54736-5.54736,5.54736-3.51416-3.51416Zm0,5.48046,2.80713,2.80713-2.80713,2.80713Zm0,7.02832,3.51416-3.51416,5.54736,5.54737-5.54687,5.54687-3.51465-3.51465Zm0,5.4795,2.80761,2.80761-2.80761,2.80762Zm0,7.02929,3.51465-3.51464,5.54687,5.54693-5.54736,5.54736-3.51416-3.51422Zm0,5.4795,2.80713,2.80719-2.80713,2.80706Zm.707,6.32129,2.80713-2.80707,2.80713,2.80707Zm7.02832,0-3.51416-3.5141,5.54736-5.54737,5.54737,5.54731-3.51417,3.51416Zm5.48047,0,2.80713-2.80713,2.80713,2.80713Zm7.02832,0-3.51416-3.51416,5.54687-5.54688,5.54737,5.54736-3.51368,3.51368Zm5.48047,0,2.80664-2.80665,2.80664,2.80665Zm7.02734,0-3.51367-3.51368,5.54736-5.54736,5.54712,5.54706-3.51416,3.514Zm5.48071,0,2.80713-2.807,2.80689,2.807Zm7.02808,0-3.51392-3.514,5.54737-5.54737,5.54712,5.54719-3.51416,3.51416Zm5.48047,0,2.80713-2.80713,2.80713,2.80713Zm7.02832,0-3.51416-3.51416,5.54736-5.54731,5.54736,5.54737-3.51416,3.5141Zm5.48047,0,2.80713-2.80707,2.80712,2.80707Zm6.32129-.707-2.80713-2.80706,2.80713-2.80719Zm0-7.02832-3.51416,3.51422-5.54737-5.54736,5.54688-5.54693,3.51465,3.51464Zm0-5.47949-2.80762-2.80762,2.80762-2.80761Zm0-7.0293-3.51465,3.51465-5.54712-5.54706,5.54736-5.54736,3.51441,3.51434Zm0-5.47949L423.81,226.68811l2.80738-2.80725Zm0-7.02862-3.51441,3.51428-5.54712-5.54718,5.54712-5.54718,3.51441,3.51428Zm0-5.47986L423.81,214.17969l2.80738-2.80731Zm0-7.02863-3.51441,3.51435-5.54736-5.54737,5.54736-5.54724,3.51441,3.51441Zm0-5.47992L423.81,201.671l2.80738-2.80743Zm0-7.02887L423.103,200.964l-5.54687-5.547,5.54712-5.54712,3.51416,3.51422Zm0-5.47949-2.80713-2.80719,2.80713-2.80707Z"/><rect class="cls-4" y="256.83154" width="428.65033" height="1"/><path class="cls-5" d="M275.566,213.53146V225.099h2.30224V213.53146a3.01781,3.01781,0,1,0-2.30224,0Z"/><polygon class="cls-5" points="277.868 254.443 277.868 234.459 275.566 234.459 275.566 254.443 271.207 254.443 271.207 256.746 275.566 256.746 277.868 256.746 282.228 256.746 282.228 254.443 277.868 254.443"/><path class="cls-5" d="M318.74444,213.53132v10.23555h2.30224V213.5316a3.0178,3.0178,0,1,0-2.30224-.00028Z"/><polygon class="cls-5" points="321.047 254.443 321.047 237.094 318.744 237.094 318.744 254.443 314.385 254.443 314.385 256.746 318.744 256.746 321.047 256.746 325.406 256.746 325.406 254.443 321.047 254.443"/><rect class="cls-6" x="264.08874" y="216.07324" width="68.38349" height="10.51015" rx="1"/><rect class="cls-6" x="264.08874" y="231.83846" width="68.38349" height="10.51015" rx="1"/><polygon class="cls-7" points="323.104 231.838 326.557 231.838 331.37 242.349 327.917 242.349 323.104 231.838"/><polygon class="cls-7" points="313.461 231.838 316.914 231.838 321.727 242.349 318.273 242.349 313.461 231.838"/><polygon class="cls-7" points="303.817 231.838 307.27 231.838 312.083 242.349 308.63 242.349 303.817 231.838"/><polygon class="cls-7" points="294.174 231.838 297.627 231.838 302.44 242.349 298.986 242.349 294.174 231.838"/><polygon class="cls-7" points="284.53 231.838 287.983 231.838 292.796 242.349 289.343 242.349 284.53 231.838"/><polygon class="cls-7" points="274.887 231.838 278.34 231.838 283.153 242.349 279.699 242.349 274.887 231.838"/><polygon class="cls-7" points="265.243 231.838 268.696 231.838 273.509 242.349 270.056 242.349 265.243 231.838"/><polygon class="cls-7" points="323.104 216.073 326.557 216.073 331.37 226.583 327.917 226.583 323.104 216.073"/><polygon class="cls-7" points="313.461 216.073 316.914 216.073 321.727 226.583 318.273 226.583 313.461 216.073"/><polygon class="cls-7" points="303.817 216.073 307.27 216.073 312.083 226.583 308.63 226.583 303.817 216.073"/><polygon class="cls-7" points="294.174 216.073 297.627 216.073 302.44 226.583 298.986 226.583 294.174 216.073"/><polygon class="cls-7" points="284.53 216.073 287.983 216.073 292.796 226.583 289.343 226.583 284.53 216.073"/><polygon class="cls-7" points="274.887 216.073 278.34 216.073 283.153 226.583 279.699 226.583 274.887 216.073"/><polygon class="cls-7" points="265.243 216.073 268.696 216.073 273.509 226.583 270.056 226.583 265.243 216.073"/><path class="cls-3" d="M63.74044,249.78437a11.27542,11.27542,0,1,0-20.89623,0H42.818c.08138.20035.19364.38332.286.57782.10108.214.20027.42875.31425.635.12121.21867.25265.42857.38763.638.1268.19743.26142.3884.39992.57714.17068.232.34453.45877.53207.67675.21858.25481.44638.50118.68664.73543.15356.14942.3127.29059.47452.43124.22.19158.44861.37214.68312.54643.16482.12224.32655.24629.49808.35958a11.23676,11.23676,0,0,0,1.0292.60114c.16172.0837.3256.16087.4918.23691q.50337.231,1.03186.41258c.11.03767.21567.0831.32716.11742a11.22838,11.22838,0,0,0,1.36641.31932c.1434.025.28706.04646.43227.066a11.3163,11.3163,0,0,0,1.48522.1139c.01075,0,.0209.00241.03174.00241h4.22828a11.28678,11.28678,0,0,0,10.45792-7.04713Z"/><path class="cls-3" d="M131.39291,249.78437a11.27541,11.27541,0,1,0-20.89623,0h-.02623c.08138.20035.19364.38332.286.57782.10108.214.20026.42875.31425.635.1212.21867.25265.42857.38762.638.1268.19743.26143.3884.39993.57714.17067.232.34453.45877.53206.67675.21859.25481.44638.50118.68665.73543.15355.14942.3127.29059.47451.43124.22005.19158.44862.37214.68312.54643.16483.12224.32655.24629.49809.35958a11.2366,11.2366,0,0,0,1.02919.60114c.16173.0837.32561.16087.49181.23691q.50337.231,1.03186.41258c.11.03767.21566.0831.32715.11742a11.229,11.229,0,0,0,1.36642.31932c.1434.025.28706.04646.43227.066a11.31628,11.31628,0,0,0,1.48521.1139c.01076,0,.02091.00241.03175.00241h4.22828a11.28678,11.28678,0,0,0,10.45792-7.04713Z"/><path class="cls-6" d="M149.69474,230.79939l-1.40943,18.985H129.94866l1.40943-18.985a7.03887,7.03887,0,0,0-5.44037-6.84979l-13.29088-3.12889h18.33657l13.305,3.12889A7.02637,7.02637,0,0,1,149.69474,230.79939Z"/><ellipse class="cls-7" cx="136.27179" cy="233.41134" rx="2.05609" ry="3.75304"/><path class="cls-8" d="M135.27839,233.41134c0-1.73516.66344-3.1894,1.53973-3.619a1.26186,1.26186,0,0,0-.54634-.134c-1.13552,0-2.05607,1.68025-2.05607,3.753s.92055,3.753,2.05607,3.753a1.26182,1.26182,0,0,0,.54634-.134C135.94183,236.60077,135.27839,235.14643,135.27839,233.41134Z"/><ellipse class="cls-7" cx="147.32278" cy="233.41134" rx="2.05609" ry="3.75304"/><path class="cls-8" d="M146.32938,233.41134c0-1.73516.66344-3.1894,1.53973-3.619a1.26179,1.26179,0,0,0-.54634-.134c-1.13552,0-2.05607,1.68025-2.05607,3.753s.92055,3.753,2.05607,3.753a1.26175,1.26175,0,0,0,.54634-.134C146.99282,236.60077,146.32938,235.14643,146.32938,233.41134Z"/><path class="cls-9" d="M131.35809,230.79939l-1.40943,18.985H15.78511V193.40735a4.22261,4.22261,0,0,1,4.22828-4.22828H94.713a7.05232,7.05232,0,0,1,6.49743,4.327l11.41641,27.31469,13.29088,3.12889A7.03887,7.03887,0,0,1,131.35809,230.79939Z"/><path class="cls-6" d="M121.06929,197.17049H102.73264l-1.52221-3.66447a7.05232,7.05232,0,0,0-6.49743-4.327h18.32254a7.05718,7.05718,0,0,1,6.51155,4.327Z"/><polygon class="cls-7" points="121.071 197.164 102.738 197.164 112.62 220.817 130.953 220.817 121.071 197.164"/><path class="cls-7" d="M98.59512,197.16421h-18.333v13.78647a9.866,9.866,0,0,0,9.866,9.866h18.34913Z"/><path class="cls-3" d="M48.79385,249.78441a11.28678,11.28678,0,0,1-10.45792,7.04713H34.10765a11.28678,11.28678,0,0,1-10.45792-7.04713Z"/><path class="cls-3" d="M117.85576,249.78441a11.2868,11.2868,0,0,1-10.45793,7.04713h-4.22827a11.28679,11.28679,0,0,1-10.45793-7.04713Z"/><circle class="cls-5" cx="34.1241" cy="245.55613" r="11.27541"/><circle class="cls-7" cx="34.10765" cy="245.55613" r="5.63771"/><circle class="cls-5" cx="103.18601" cy="245.55613" r="11.27541"/><circle class="cls-7" cx="103.16956" cy="245.55613" r="5.63771"/><path class="cls-10" d="M147.1411,242.91346h-12.325l-.20507,1.76178h12.39616Z"/><path class="cls-6" d="M70.75274,197.17049H24.877a2.81885,2.81885,0,0,0-2.81885,2.81885v23.37121a4.22828,4.22828,0,0,0,4.22828,4.22828H42.07056a9.866,9.866,0,0,1,6.97631,2.88968L54.323,235.7546A4.22832,4.22832,0,0,0,57.3128,236.993H69.34332a4.22828,4.22828,0,0,0,4.22828-4.22828V199.98934A2.81886,2.81886,0,0,0,70.75274,197.17049Z"/><rect class="cls-8" x="282.42502" width="1" height="77.5696"/><rect class="cls-8" x="239.44077" y="94.3743" width="47.22094" height="0.99998" transform="translate(-9.93382 155.50633) rotate(-32.35532)"/><circle class="cls-3" cx="282.92518" cy="81.81306" r="5.24331"/><path class="cls-5" d="M282.9252,76.5697a5.1993,5.1993,0,0,0-2.75317.79871,5.22119,5.22119,0,0,0,7.19781,7.19781,5.22124,5.22124,0,0,0-4.44464-7.99652Z"/><circle class="cls-8" cx="283.9166" cy="81.30154" r="1.31083"/><rect class="cls-8" x="301.29268" y="73.71993" width="1.00003" height="49.73205" transform="translate(21.14146 247.02081) rotate(-45.96466)"/><path class="cls-5" d="M247.5232,103.97739l75.71744,8.25869a4,4,0,0,1,3.5427,4.41013l-5.54706,44.235a4,4,0,0,1-4.41014,3.5427l-75.71744-8.25869a4,4,0,0,1-3.5427-4.41013l5.54706-44.235A4,4,0,0,1,247.5232,103.97739Z"/><path class="cls-8" d="M240.40874,103.2014l75.71744,8.25869a4,4,0,0,1,3.5427,4.41013l-5.54706,44.235a4,4,0,0,1-4.41013,3.5427l-75.71745-8.25869a4,4,0,0,1-3.54269-4.41014l5.54706-44.235A4,4,0,0,1,240.40874,103.2014Z"/><polygon class="cls-6" points="261.61 254.832 246.17 254.832 247.28 250.832 248.4 246.832 249.51 242.832 250.63 238.832 251.56 235.482 256.22 235.482 257.15 238.832 258.27 242.832 259.38 246.832 260.5 250.832 261.61 254.832"/><rect class="cls-9" x="242.24324" y="254.83303" width="23.28847" height="2"/><polygon class="cls-7" points="260.5 250.832 247.28 250.832 248.4 246.832 259.38 246.832 260.5 250.832"/><polygon class="cls-7" points="258.27 242.832 249.51 242.832 250.63 238.832 257.15 238.832 258.27 242.832"/><polygon class="cls-6" points="357.448 254.833 342.008 254.833 343.118 250.833 344.238 246.833 345.348 242.833 346.468 238.833 347.398 235.483 352.058 235.483 352.988 238.833 354.108 242.833 355.218 246.833 356.338 250.833 357.448 254.833"/><rect class="cls-9" x="338.08115" y="254.83346" width="23.28847" height="2"/><polygon class="cls-7" points="356.338 250.833 343.118 250.833 344.238 246.833 355.218 246.833 356.338 250.833"/><polygon class="cls-7" points="354.108 242.833 345.348 242.833 346.468 238.833 352.988 238.833 354.108 242.833"/><rect class="cls-11" x="195.73549" y="193.19575" width="32.77696" height="24.10476" rx="1"/><path class="cls-6" d="M218.55543,198.81709a9.09512,9.09512,0,1,0-.00048,12.86244A9.10547,9.10547,0,0,0,218.55543,198.81709Zm-11.39778,1.46514a7.028,7.028,0,0,1,9.13985-.67236l-9.81173,9.81174A7.02769,7.02769,0,0,1,207.15765,200.28223Zm.79326,10.60452,9.81173-9.81173a7.01351,7.01351,0,0,1-9.81173,9.81173Z"/><path class="cls-3" d="M254.0483,144.5001a1.01722,1.01722,0,0,1-.89227-1.10432l.47494-4.47192L242.173,137.707a1.01546,1.01546,0,0,1-.89227-1.10431l.27867-2.62392a1.6926,1.6926,0,0,1,.33608-.88056q.28151-.362.66124-.77042l12.811-12.91849a2.03327,2.03327,0,0,1,1.6131-.7636l2.8094.29837a1.01551,1.01551,0,0,1,.89227,1.10432l-1.57024,14.785,3.17842.33757a1.01549,1.01549,0,0,1,.89227,1.10431l-.27867,2.62392a1.01724,1.01724,0,0,1-1.10432.89227l-3.17841-.33757-.47494,4.47193a1.01722,1.01722,0,0,1-1.10432.89226Zm.07338-10.19674.84014-7.91059-7.161,7.23929Z"/><path class="cls-3" d="M287.115,131.60179q-.03831.70743-.128,1.55671l-.18451,1.7373-.18451,1.7373q-.09035.85068-.20182,1.54887a17.36192,17.36192,0,0,1-1.06867,3.90409,8.45866,8.45866,0,0,1-2.03807,2.99879,7.82134,7.82134,0,0,1-3.2545,1.78444,14.25083,14.25083,0,0,1-9.14778-.97154,7.83933,7.83933,0,0,1-2.78865-2.42624,8.44517,8.44517,0,0,1-1.36274-3.36,17.36258,17.36258,0,0,1-.22482-4.04146q.07338-1.41225.26485-3.20578.19027-1.79168.41429-3.18892a17.93221,17.93221,0,0,1,1.0727-3.942,8.595,8.595,0,0,1,2.04394-3.05415,8.11029,8.11029,0,0,1,3.24194-1.84174,11.67388,11.67388,0,0,1,4.66806-.30854,12.2256,12.2256,0,0,1,4.48363,1.24317,7.83162,7.83162,0,0,1,2.80711,2.4282,8.4661,8.4661,0,0,1,1.36273,3.36A17.37061,17.37061,0,0,1,287.115,131.60179Zm-15.57487,4.81271a7.74275,7.74275,0,0,0,.83735,4.25677,5.39161,5.39161,0,0,0,7.35609.78125,7.75107,7.75107,0,0,0,1.71277-3.98594q.222-1.39647.40352-3.09677.18054-1.69992.25592-3.11245a7.75106,7.75106,0,0,0-.83735-4.25677,5.3916,5.3916,0,0,0-7.35609-.78125,7.74264,7.74264,0,0,0-1.71276,3.98594q-.22342,1.39632-.40353,3.09677Q271.61546,135.002,271.54008,136.4145Z"/><path class="cls-3" d="M309.94848,124.27108a1.01376,1.01376,0,0,1,.8913,1.10421l-.27867,2.62392a1.2026,1.2026,0,0,1-.35721.72806,7.01088,7.01088,0,0,1-.60082.55292l-6.001,5.11948a11.19834,11.19834,0,0,1,2.92593,1.1337,7.68818,7.68818,0,0,1,2.14739,1.77873,6.4884,6.4884,0,0,1,1.2405,2.39342,7.74939,7.74939,0,0,1,.21139,2.93817,7.51168,7.51168,0,0,1-1.1206,3.3388,7.37941,7.37941,0,0,1-2.37616,2.30786,9.91832,9.91832,0,0,1-3.34725,1.25213,13.74737,13.74737,0,0,1-4.03263.13247,14.88155,14.88155,0,0,1-4.42658-1.08685,10.68885,10.68885,0,0,1-3.01154-1.90881,6.88956,6.88956,0,0,1-1.70862-2.38715,6.26846,6.26846,0,0,1-.52172-2.485.82265.82265,0,0,1,.35426-.69106,1.06426,1.06426,0,0,1,.75-.2012l2.9201.31012a.83245.83245,0,0,1,.58428.3056,3.40938,3.40938,0,0,1,.42654.73667,3.43476,3.43476,0,0,0,.50311.89407,3.64317,3.64317,0,0,0,.90517.80714,5.91692,5.91692,0,0,0,1.48046.661,11.686,11.686,0,0,0,2.2352.425,6.59122,6.59122,0,0,0,3.73689-.51938,2.9089,2.9089,0,0,0,1.65952-2.42129,2.49616,2.49616,0,0,0-1.13353-2.53133,7.94355,7.94355,0,0,0-3.56414-1.10721l-3.06771-.3258a1.01722,1.01722,0,0,1-.89226-1.10432l.27877-2.62489a1.20408,1.20408,0,0,1,.35818-.728,6.97406,6.97406,0,0,1,.60082-.55292l5.75107-4.88381-10.20142-1.08343a1.01722,1.01722,0,0,1-.89227-1.10432l.27867-2.62391a1.01549,1.01549,0,0,1,1.10431-.89227Z"/></svg>