<svg xmlns="http://www.w3.org/2000/svg" viewBox="0 0 428.6503 257.8315"><title>404</title><path d="M374.9951,20.98H220.7783a1,1,0,0,1-.707-1.707L239.3427,0a.9993.9993,0,0,1,.7071-.293H356.0254a1.002,1.002,0,0,1,.7128.2984L375.414,18.98h32.5049a1,1,0,0,1,0,2H374.9951Zm-151.8027-2h149.415L355.6064,1.707H240.4638Z" fill="#9aa4ad"/><rect x="230.5185" y="81.2344" width="1" height="67.8276" fill="#edeff2"/><rect x="187.3884" y="138.5517" width="84.1665" height="44.9235" rx="4" transform="translate(441.1947 344.7413) rotate(-174.1056)" fill="#9aa4ad"/><rect x="180.2696" y="137.8168" width="84.1665" height="44.9235" rx="4" transform="translate(427.0702 342.5442) rotate(-174.1056)" fill="#edeff2"/><path d="M199.561,171.2692a1.005,1.005,0,0,1-.8853-1.09l.4569-4.4249-11.3382-1.1706a1.0051,1.0051,0,0,1-.8858-1.09l.2681-2.5968a1.6745,1.6745,0,0,1,.33-.8717q.2777-.3592.6521-.7648l12.6347-12.8164a2.0117,2.0117,0,0,1,1.594-.7592l2.78.2869a1.0051,1.0051,0,0,1,.8858,1.09l-1.51,14.63,3.1455.3248a1.0042,1.0042,0,0,1,.8853,1.09l-.2681,2.5968a1.0042,1.0042,0,0,1-1.0893.8858l-3.1454-.3248-.4569,4.425a1.0049,1.0049,0,0,1-1.09.8858Zm.0436-10.0869.8081-7.8273-7.0626,7.1815Z" fill="#9aa4ad"/><path d="M232.2342,158.4144q-.0357.6993-.1223,1.54l-.1775,1.72-.1774,1.7187q-.0869.8414-.195,1.5326a17.2187,17.2187,0,0,1-1.0462,3.8659,8.3783,8.3783,0,0,1-2.007,2.9718,7.7514,7.7514,0,0,1-3.2142,1.7744,14.1113,14.1113,0,0,1-9.0526-.9345,7.7665,7.7665,0,0,1-2.7655-2.3918,8.3741,8.3741,0,0,1-1.358-3.3192,17.1763,17.1763,0,0,1-.2338-3.9981q.0691-1.3973.2535-3.1719t.4-3.1559a17.74,17.74,0,0,1,1.0495-3.9028,8.5214,8.5214,0,0,1,2.0132-3.0265,8.0084,8.0084,0,0,1,3.2014-1.8311,11.564,11.564,0,0,1,4.6167-.3184,12.1048,12.1048,0,0,1,4.44,1.2162,7.7438,7.7438,0,0,1,2.7838,2.3946A8.3638,8.3638,0,0,1,232,154.4172,17.2109,17.2109,0,0,1,232.2342,158.4144Zm-15.3933,4.806a7.6615,7.6615,0,0,0,.841,4.2087,5.3343,5.3343,0,0,0,7.2786.7515,7.6731,7.6731,0,0,0,1.6827-3.9482q.2164-1.3819.39-3.0642t.2441-3.08a7.6764,7.6764,0,0,0-.8406-4.2087,5.3342,5.3342,0,0,0-7.2786-.7515,7.6639,7.6639,0,0,0-1.6831,3.9482q-.2174,1.3833-.39,3.0651T216.8409,163.22Z" fill="#9aa4ad"/><path d="M247.0715,176.1743a1.0052,1.0052,0,0,1-.8853-1.09l.4568-4.425-11.3382-1.1706a1.0049,1.0049,0,0,1-.8857-1.09l.2681-2.5968a1.6733,1.6733,0,0,1,.33-.8716q.2775-.3593.652-.7649L248.304,151.35a2.0112,2.0112,0,0,1,1.5939-.7593l2.78.287a1.0051,1.0051,0,0,1,.8857,1.09l-1.51,14.63,3.1455.3247a1.0051,1.0051,0,0,1,.8857,1.09l-.2681,2.5969a1.0051,1.0051,0,0,1-1.09.8857l-3.1454-.3247-.4569,4.425a1.0051,1.0051,0,0,1-1.09.8857Zm.0436-10.087.8081-7.8273-7.0627,7.1816Z" fill="#9aa4ad"/><g opacity="0.5"><rect x="159.0886" y="98.1047" width="131.4824" height="158.5" fill="#fff"/></g><rect x="228.458" y="24.6685" width="1" height="51.3228" fill="#edeff2"/><circle cx="231.0186" cy="75.9911" r="5.2433" fill="#c6cacf"/><circle cx="233.0646" cy="75.9911" r="1.3108" fill="#edeff2"/><path d="M227.8726,75.9911a5.2447,5.2447,0,0,1,4.1947-5.138,5.2433,5.2433,0,1,0,0,10.276A5.2447,5.2447,0,0,1,227.8726,75.9911Z" fill="#9aa4ad"/><polygon points="376.635 257.125 374.635 257.125 374.635 25.668 349.468 25.668 349.468 257.125 347.468 257.125 347.468 23.668 376.635 23.668 376.635 257.125" fill="#c6cacf"/><path d="M159.989,253.9025v2.7022a.9.9,0,1,1-1.8008,0v-2.7022a.9.9,0,1,1,1.8008,0Zm-.9-106.4834a.9.9,0,0,0-.9.9v5.2793a.9.9,0,0,0,1.8008,0V148.32A.9.9,0,0,0,159.0886,147.4191Zm0,10.5586a.9.9,0,0,0-.9.9v5.2793a.9.9,0,0,0,1.8008,0v-5.2793A.9.9,0,0,0,159.0886,157.9777Zm0,10.5586a.9.9,0,0,0-.9.9v5.2783a.9.9,0,0,0,1.8008,0v-5.2783A.9.9,0,0,0,159.0886,168.5363Zm0-42.2344a.9.9,0,0,0-.9.9v5.2793a.9.9,0,0,0,1.8008,0v-5.2793A.9.9,0,0,0,159.0886,126.3019Zm0,10.5586a.9.9,0,0,0-.9.9V143.04a.9.9,0,0,0,1.8008,0v-5.2793A.9.9,0,0,0,159.0886,136.8605Zm0-21.1162a.9.9,0,0,0-.9.9v5.2793a.9.9,0,0,0,1.8008,0v-5.2793A.9.9,0,0,0,159.0886,115.7443Zm0,63.35a.9.9,0,0,0-.9.9v5.2793a.9.9,0,0,0,1.8008,0v-5.2793A.9.9,0,0,0,159.0886,179.0939Zm0-73.9082a.9.9,0,0,0-.9.9v5.2793a.9.9,0,1,0,1.8008,0v-5.2793A.9.9,0,0,0,159.0886,105.1857Zm0,126.7a.9.9,0,0,0-.9.9v5.2793a.9.9,0,1,0,1.8008,0v-5.2793A.9.9,0,0,0,159.0886,231.8859Zm0-42.2334a.9.9,0,0,0-.9.9v5.2793a.9.9,0,0,0,1.8008,0v-5.2793A.9.9,0,0,0,159.0886,189.6525Zm0,31.6758a.9.9,0,0,0-.9.9v5.2783a.9.9,0,0,0,1.8008,0v-5.2783A.9.9,0,0,0,159.0886,221.3283Zm0,21.1162a.9.9,0,0,0-.9.9v5.2793a.9.9,0,0,0,1.8008,0v-5.2793A.9.9,0,0,0,159.0886,242.4445Zm0-31.6748a.9.9,0,0,0-.9.9v5.2793a.9.9,0,0,0,1.8008,0V211.67A.9.9,0,0,0,159.0886,210.77Zm0-10.5586a.9.9,0,0,0-.9.9v5.2793a.9.9,0,0,0,1.8008,0v-5.2793A.9.9,0,0,0,159.0886,200.2111ZM161.79,97.2043h-2.7012a.9.9,0,0,0-.9.9v2.7021a.9.9,0,1,0,1.8008,0V99.0051H161.79a.9.9,0,0,0,0-1.8008Zm43.854,0h-5.482a.9.9,0,1,0,0,1.8008h5.482a.9.9,0,0,0,0-1.8008Zm-10.9634,0h-5.4819a.9.9,0,1,0,0,1.8008H194.68a.9.9,0,0,0,0-1.8008Zm-21.9268,0h-5.4819a.9.9,0,0,0,0,1.8008h5.4819a.9.9,0,0,0,0-1.8008Zm43.8535,0h-5.4814a.9.9,0,1,0,0,1.8008h5.4814a.9.9,0,0,0,0-1.8008Zm-32.89,0h-5.4819a.9.9,0,1,0,0,1.8008h5.4819a.9.9,0,0,0,0-1.8008Zm98.67,0H276.906a.9.9,0,1,0,0,1.8008h5.4814a.9.9,0,1,0,0-1.8008Zm-54.8169,0h-5.4814a.9.9,0,1,0,0,1.8008h5.4814a.9.9,0,1,0,0-1.8008Zm32.89,0h-5.4815a.9.9,0,1,0,0,1.8008h5.4815a.9.9,0,0,0,0-1.8008Zm10.9638,0h-5.4814a.9.9,0,1,0,0,1.8008h5.4814a.9.9,0,1,0,0-1.8008Zm-21.9272,0h-5.4815a.9.9,0,0,0,0,1.8008h5.4815a.9.9,0,1,0,0-1.8008Zm-10.9634,0h-5.4814a.9.9,0,0,0,0,1.8008h5.4814a.9.9,0,0,0,0-1.8008Zm52.0371,0H287.87a.9.9,0,1,0,0,1.8008h1.8008v1.8017a.9.9,0,0,0,1.8008,0V98.1047A.9006.9006,0,0,0,290.571,97.2043Zm0,7.98a.9006.9006,0,0,0-.9.9v5.2793a.9.9,0,1,0,1.8008,0v-5.2793A.9006.9006,0,0,0,290.571,105.1848Zm0,42.2334a.9006.9006,0,0,0-.9.9v5.2793a.9.9,0,1,0,1.8008,0v-5.2793A.9006.9006,0,0,0,290.571,147.4182Zm0-10.5586a.9006.9006,0,0,0-.9.9v5.2793a.9.9,0,0,0,1.8008,0V137.76A.9006.9006,0,0,0,290.571,136.86Zm0,42.2343a.9007.9007,0,0,0-.9.9v5.2783a.9.9,0,1,0,1.8008,0v-5.2783A.9007.9007,0,0,0,290.571,179.0939Zm0-10.5586a.9007.9007,0,0,0-.9.9v5.2793a.9.9,0,1,0,1.8008,0v-5.2793A.9007.9007,0,0,0,290.571,168.5353Zm0-52.792a.9007.9007,0,0,0-.9.9v5.2793a.9.9,0,0,0,1.8008,0v-5.2793A.9007.9007,0,0,0,290.571,115.7433Zm0,10.5586a.9007.9007,0,0,0-.9.9v5.2784a.9.9,0,0,0,1.8008,0v-5.2784A.9007.9007,0,0,0,290.571,126.3019Zm0,31.6748a.9007.9007,0,0,0-.9.9v5.2793a.9.9,0,0,0,1.8008,0v-5.2793A.9007.9007,0,0,0,290.571,157.9767Zm0,63.3506a.9007.9007,0,0,0-.9.9v5.2793a.9.9,0,0,0,1.8008,0v-5.2793A.9007.9007,0,0,0,290.571,221.3273Zm0,21.1162a.9007.9007,0,0,0-.9.9v5.2793a.9.9,0,0,0,1.8008,0v-5.2793A.9007.9007,0,0,0,290.571,242.4435Zm0-52.7919a.9006.9006,0,0,0-.9.9v5.2793a.9.9,0,1,0,1.8008,0v-5.2793A.9006.9006,0,0,0,290.571,189.6516Zm0,21.1171a.9007.9007,0,0,0-.9.9v5.2793a.9.9,0,0,0,1.8008,0v-5.2793A.9007.9007,0,0,0,290.571,210.7687Zm0-10.5586a.9007.9007,0,0,0-.9.9V206.39a.9.9,0,1,0,1.8008,0v-5.2793A.9007.9007,0,0,0,290.571,200.21Zm0,52.792a.9007.9007,0,0,0-.9.9v2.7022a.9.9,0,0,0,1.8008,0v-2.7022A.9007.9007,0,0,0,290.571,253.0021Z" fill="#84919c"/><path d="M29.2266,256.6047a12.584,12.584,0,1,1,0-25.1679H79.5624a12.584,12.584,0,0,1,0,25.1679Z" fill="#edeff2"/><path d="M29.2266,256.6047a12.584,12.584,0,1,1,0-25.1679H79.5624a12.584,12.584,0,0,1,0,25.1679Z" fill="#edeff2"/><path d="M90.5481,231.4368H79.5624a12.584,12.584,0,0,1,0,25.1679H90.5481a12.584,12.584,0,0,0,0-25.1679Z" fill="#9aa4ad"/><circle cx="29.2266" cy="244.0207" r="6.9911" fill="#c6cacf"/><circle cx="29.2266" cy="244.0207" r="1.7478" fill="#fff"/><circle cx="46.0052" cy="244.0207" r="6.9911" fill="#c6cacf"/><circle cx="62.7838" cy="244.0207" r="6.9911" fill="#c6cacf"/><circle cx="79.5624" cy="244.0207" r="6.9911" fill="#c6cacf"/><path d="M110.5752,207.5765a5.0018,5.0018,0,0,0-5,5v16.25h-79.14v-15a6.2459,6.2459,0,0,1,6.25-6.25h13.32v-9.41a9.8074,9.8074,0,0,1,9.81-9.81h25.45a9.816,9.816,0,0,1,9.82,9.81v9.41Z" fill="#ffdb86"/><path d="M81.2652,188.3564a9.8206,9.8206,0,0,1,8.9984,5.8883H100.937a10.8382,10.8382,0,0,0-9.66-5.89Z" fill="#ffc335"/><path d="M91.0852,198.1664v9.41h9.8518V194.2447H90.2636A9.7583,9.7583,0,0,1,91.0852,198.1664Z" fill="#fff"/><circle cx="46.0067" cy="244.0207" r="1.7478" fill="#fff"/><circle cx="62.7838" cy="244.0207" r="1.7478" fill="#fff"/><circle cx="79.5609" cy="244.0207" r="1.7478" fill="#fff"/><path d="M112.8917,207.58h-2.5V189.5476a1.3832,1.3832,0,0,0-1.3831-1.3831H107.147a1.25,1.25,0,0,1-1.25-1.25h0a1.25,1.25,0,0,1,1.25-1.25h1.8616a3.8831,3.8831,0,0,1,3.8831,3.8831Z" fill="#9aa4ad"/><path d="M110.5786,207.58h15.16a5,5,0,0,1,5,5v16.2554a0,0,0,0,1,0,0h-25.16a0,0,0,0,1,0,0V212.58A5,5,0,0,1,110.5786,207.58Z" fill="#ffc335"/><rect x="105.5752" y="228.8265" width="25.16" height="0.01" fill="#ffc335"/><rect x="52.3261" y="194.2426" width="9.6418" height="17.734" rx="1" fill="#fff"/><path d="M80.2225,194.2426H67.7258a1.25,1.25,0,0,0-1.25,1.25v15.2341a1.25,1.25,0,0,0,1.25,1.25h1.3521a3.4821,3.4821,0,0,1,3.2164,2.1478l1.6475,3.9715a3,3,0,0,0,2.771,1.85h4.7723a3,3,0,0,0,3-3V198.5051A4.2626,4.2626,0,0,0,80.2225,194.2426Z" fill="#fff"/><path d="M91.0818,212.8456h1.25v7.1009h-1.25Zm4.3593,7.1009h1.25v-7.1009h-1.25Zm4.3593,0h1.25v-7.1009H99.8Zm16.4092,4.2549h1.25V212.8456h-1.25Zm4.3593-11.3558v11.3558h1.25V212.8456Z" fill="#bf9228"/><ellipse cx="110.935" cy="216.3961" rx="1.9451" ry="3.5504" fill="#fff"/><ellipse cx="127.0935" cy="216.3961" rx="1.9451" ry="3.5504" fill="#fff"/><path d="M126.1537,216.3961c0-1.6415.6314-3.0153,1.46-3.4218a1.2121,1.2121,0,0,0-.5206-.1287c-1.0742,0-1.9451,1.59-1.9451,3.55s.8709,3.55,1.9451,3.55a1.1284,1.1284,0,0,0,.5027-.1219C126.7672,219.4181,126.1537,218.0375,126.1537,216.3961Z" fill="#edeff2"/><path d="M109.9953,216.3961c0-1.6415.6276-3.0172,1.4566-3.4237a1.1943,1.1943,0,0,0-.5169-.1268c-1.0742,0-1.945,1.59-1.945,3.55s.8708,3.55,1.945,3.55a1.1943,1.1943,0,0,0,.5169-.1268C110.6229,219.4133,109.9953,218.0375,109.9953,216.3961Z" fill="#edeff2"/><path d="M105.5786,231.4368l10.2128,25.1679h-8.8543c-4.628,0-8.38-3.1809-8.38-7.1046V231.4368Z" fill="#edeff2"/><path d="M130.7351,249.5V232.6846H106.3828l9.67,23.92h23.0621C134.4868,256.6047,130.7351,253.4238,130.7351,249.5Z" fill="#9aa4ad"/><path d="M137.7564,231.4368H105.5786l10.2128,25.1679h1.25l-9.7056-23.9179h23.3993V249.5a6.868,6.868,0,0,0,3.6368,5.8546H116.5342l.5072,1.25h30.9278Z" fill="#c6cacf"/><path d="M25.0319,244.0207a6.9931,6.9931,0,0,1,5.5929-6.8507,6.9911,6.9911,0,1,0,0,13.7014A6.9931,6.9931,0,0,1,25.0319,244.0207Z" fill="#9aa4ad"/><path d="M41.8105,244.0207a6.9931,6.9931,0,0,1,5.5929-6.8507,6.9911,6.9911,0,1,0,0,13.7014A6.9931,6.9931,0,0,1,41.8105,244.0207Z" fill="#9aa4ad"/><path d="M58.5892,244.0207a6.993,6.993,0,0,1,5.5929-6.8507,6.9911,6.9911,0,1,0,0,13.7014A6.993,6.993,0,0,1,58.5892,244.0207Z" fill="#9aa4ad"/><path d="M75.3678,244.0207a6.993,6.993,0,0,1,5.5929-6.8507,6.9911,6.9911,0,1,0,0,13.7014A6.993,6.993,0,0,1,75.3678,244.0207Z" fill="#9aa4ad"/><rect x="91.0771" y="207.5746" width="11.09" height="0.01" fill="#fff"/><rect x="32.2647" y="218.2072" width="29.7031" height="4.5652" rx="1" fill="#ffc335"/><polygon points="347.468 23.668 337.358 23.668 337.358 257.125 339.358 257.125 339.358 25.668 347.468 25.668 347.468 23.668" fill="#9aa4ad"/><path d="M376.6347,39.7787v-16.11h-29.167v233.456h2v-.0391l.2266.2266,12.3569-12.3574,12.8765,12.8769.707-.707h1V39.7787ZM349.8818,148.4546l12.1694-12.17,12.17,12.17-12.17,12.1694Zm24.3389,27.167-12.17,12.17-12.1694-12.17,12.1694-12.1695Zm-24.3389-54.335,12.1694-12.17,12.17,12.17-12.17,12.17Zm0-27.1675,12.1694-12.17,12.17,12.17-12.17,12.17Zm0-27.1674,12.1694-12.17,12.17,12.17-12.17,12.17Zm0-27.168,12.17-12.17,12.17,12.1691-12.17,12.17Zm10.7554,13.584-11.17,11.17v-22.34Zm0,27.1677-11.17,11.17V69.3658Zm0,27.1675-11.17,11.17V96.5333Zm0,27.1677-11.17,11.17v-22.34Zm0,27.1675-11.17,11.1694V150.8687Zm0,27.1675-11.17,11.17v-22.34ZM349.8818,202.79l12.1694-12.17,12.17,12.17-12.17,12.1694Zm10.7554,13.5834-11.17,11.17V205.2036Zm13.9975-11.1694v22.3389L363.4653,216.373Zm-11.1694-15.998,11.1694-11.17v22.34Zm0-27.1675,11.1694-11.1694v22.3388Zm0-27.1675,11.1694-11.17v22.34Zm0-27.1677,11.1694-11.17v22.3392Zm0-27.1675,11.1694-11.17V91.705Zm0-27.1677,11.1694-11.17v22.34Zm11.1694-15.9989L363.4654,26.2l.5316-.5316h10.6377Zm-14.5293-11.7.5318.5317L349.4677,37.37V25.6685ZM349.4677,254.71v-22.34l11.17,11.17Zm.4141-24.7539,12.1694-12.1694,12.17,12.1694-12.17,12.17Zm24.7529,2.4142v22.34l-11.1694-11.17Z" fill="#c6cacf"/><rect y="256.6047" width="428.6503" height="1" fill="#4d5860"/><rect x="361.7994" y="30.7443" width="27.671" height="43.2766" fill="#ffdb86"/><rect x="368.3159" y="36.3828" width="14.6388" height="17.3609" transform="translate(420.6985 -330.5721) rotate(90)" fill="#fff"/><rect x="354.5228" y="30.7443" width="7.2766" height="43.2766" fill="#ffc335"/><rect x="354.5228" y="73.9911" width="34.9476" height="2" fill="#c6cacf"/><rect x="354.5228" y="73.9911" width="7.2766" height="2" fill="#9aa4ad"/><path d="M276.526,219.0635v10.049h2v-10.049a2.6217,2.6217,0,1,0-2,0Z" fill="#c6cacf"/><polygon points="278.526 254.605 278.526 237.243 276.526 237.243 276.526 254.605 272.739 254.605 272.739 256.605 276.526 256.605 278.526 256.605 282.313 256.605 282.313 254.605 278.526 254.605" fill="#c6cacf"/><rect x="232.5791" y="26.6812" width="1" height="49.3101" fill="#edeff2"/><rect x="243.7507" y="20.9795" width="9.0038" height="5.7019" fill="#9aa4ad"/><path d="M420.1123,18.98H397.2734L378.5976.0054a1.0022,1.0022,0,0,0-.7129-.2984H263.2129a1.0075,1.0075,0,0,0-.7071.293L243.6126,18.8932H220.9178a1.1979,1.1979,0,0,0-1.1979,1.1979v6.59h24.0308V20.98H420.1123a1,1,0,0,0,0-2ZM323.5263,1.707h16.1719l-8.4756,8.4756-8.0859-8.0859Zm-19.0009,0h15.3935l.39.39-8.0865,8.0864-8.0864-8.0864Zm-19,0h15.3925l.39.39-8.086,8.0859-8.0859-8.0859Zm-3.2178.39-9.535,9.535-9.5351-9.5353.3894-.3894h18.291ZM246.3545,18.98l15.469-15.469,9.535,9.5353L265.4248,18.98Zm21.8984,0,4.52-4.52,4.5195,4.52Zm11.8672,0-5.9335-5.9337,9.535-9.5351,8.086,8.086L284.4248,18.98Zm7.1328,0,5.9687-5.9688L299.19,18.98Zm14.7656,0-7.3828-7.3828,8.0859-8.086,8.0865,8.0865L303.4257,18.98Zm4.2354,0,5.9682-5.9683L318.19,18.98Zm14.7646,0-7.3823-7.3823,8.0864-8.0865,8.086,8.086L322.4257,18.98Zm4.2354,0,5.9687-5.9688,5.9688,5.9688Zm14.7656,0-7.3828-7.3828,9.89-9.89h14.8789L340.1328,18.98Zm2.9414,0L360.2334,1.707h17.2324L394.4668,18.98Z" fill="#c6cacf"/><path d="M314.036,219.0634v8.8919h2v-8.8916a2.6217,2.6217,0,1,0-2,0Z" fill="#c6cacf"/><polygon points="316.036 254.605 316.036 239.532 314.036 239.532 314.036 254.605 310.249 254.605 310.249 256.605 314.036 256.605 316.036 256.605 319.824 256.605 319.824 254.605 316.036 254.605" fill="#c6cacf"/><rect x="266.5554" y="221.2716" width="59.4063" height="9.1304" rx="1" fill="#ffc335"/><rect x="266.5554" y="234.9672" width="59.4063" height="9.1304" rx="1" fill="#ffc335"/><polygon points="317.823 234.967 320.823 234.967 325.004 244.098 322.004 244.098 317.823 234.967" fill="#fff"/><polygon points="309.446 234.967 312.446 234.967 316.627 244.098 313.627 244.098 309.446 234.967" fill="#fff"/><polygon points="301.068 234.967 304.068 234.967 308.249 244.098 305.249 244.098 301.068 234.967" fill="#fff"/><polygon points="292.691 234.967 295.691 234.967 299.872 244.098 296.872 244.098 292.691 234.967" fill="#fff"/><polygon points="284.313 234.967 287.313 234.967 291.494 244.098 288.494 244.098 284.313 234.967" fill="#fff"/><polygon points="275.936 234.967 278.936 234.967 283.117 244.098 280.117 244.098 275.936 234.967" fill="#fff"/><polygon points="267.558 234.967 270.558 234.967 274.739 244.098 271.739 244.098 267.558 234.967" fill="#fff"/><polygon points="317.823 221.272 320.823 221.272 325.004 230.402 322.004 230.402 317.823 221.272" fill="#fff"/><polygon points="309.446 221.272 312.446 221.272 316.627 230.402 313.627 230.402 309.446 221.272" fill="#fff"/><polygon points="301.068 221.272 304.068 221.272 308.249 230.402 305.249 230.402 301.068 221.272" fill="#fff"/><polygon points="292.691 221.272 295.691 221.272 299.872 230.402 296.872 230.402 292.691 221.272" fill="#fff"/><polygon points="284.313 221.272 287.313 221.272 291.494 230.402 288.494 230.402 284.313 221.272" fill="#fff"/><polygon points="275.936 221.272 278.936 221.272 283.117 230.402 280.117 230.402 275.936 221.272" fill="#fff"/><polygon points="267.558 221.272 270.558 221.272 274.739 230.402 271.739 230.402 267.558 221.272" fill="#fff"/></svg>