<svg xmlns="http://www.w3.org/2000/svg" viewBox="0 0 428.6503 208.1703"><title>500</title><path d="M87.1762,131.1224h3.7871v2H81.3891v-2h3.7871V113.7611h2Zm-2-35.5411V105.63h2V95.5813a2.6216,2.6216,0,1,0-2,0Zm37.51,0v8.8918h2V95.5814a2.6214,2.6214,0,1,0-2,0Zm2,35.5412V116.05h-2v15.0722H118.9v2h9.5742v-2Z" fill="#c6cacf"/><path d="M58.0088,20.7265V76.6089H30.457v57.0425h2v-.0391l.2266.2266,12.3571-12.357L57.6792,134.12l.4687-.4687h1.4766v-.16h.3843v-.0391l.2265.2266,12.3572-12.3574L85.2309,133.96l.4688-.4687h1.4765V20.7265ZM45.0407,94.3144l12.17,12.17-12.17,12.1694-12.17-12.1694ZM32.457,104.07v-22.34l11.17,11.17ZM60.0088,48.1875V25.8481l11.17,11.17Zm12.5837-9.7556,12.17,12.17-12.17,12.17-12.17-12.17ZM60.0088,53.0156l11.17,11.17-11.17,11.17ZM85.1762,78.7422,72.5925,91.3257,60.0088,78.7422v-.1333H85.1762ZM60.0088,81.57l11.17,11.17-11.17,11.17Zm1.5742-4.9613,11.01-11.01,11.01,11.01ZM57.6245,104.07,46.4548,92.9l11.17-11.17Zm14.968-9.9164,12.17,12.1694-12.17,12.17-12.17-12.17ZM74.0066,92.74,85.1762,81.57v22.339Zm0-28.5544,11.17-11.17V75.355Zm11.17-15.9978-11.17-11.17,11.17-11.17Zm0-25.461V23.02L72.5925,35.6037,60.0088,23.02v-.2935ZM57.6245,78.6089v.2934L45.0407,91.4863,32.457,78.9023v-.2934ZM32.457,131.2373V108.8984l11.17,11.17Zm25.1675-22.3389v22.3389l-11.17-11.1694Zm2.3843,22.1787v-22.34l11.17,11.17Zm25.1674-22.34v22.34l-11.17-11.17Z" fill="#c6cacf"/><polygon points="32.457 133.651 30.457 133.651 30.457 78.609 25.665 78.609 25.665 133.651 23.665 133.651 23.665 76.609 32.457 76.609 32.457 133.651" fill="#9aa4ad"/><polygon points="60.009 76.609 58.009 76.609 58.009 22.727 53.217 22.727 53.217 76.609 51.217 76.609 51.217 20.727 60.009 20.727 60.009 76.609" fill="#9aa4ad"/><path d="M122.98,133.6426c0-.4971,3.6187-.6075,4.8667-.0293a.9.9,0,1,1-.7558,1.6328,7.5964,7.5964,0,0,0-3.211-.7031A.9.9,0,0,1,122.98,133.6426Zm-5.0122,33.2744h-7.1665a.9.9,0,0,0,0,1.8008h7.1665a.9.9,0,0,0,0-1.8008Zm8.4258-16.5137a.9037.9037,0,0,0-1.0537-.7139,7.7725,7.7725,0,0,1-1.46.14h-5.5258a.9.9,0,0,0,0,1.8008h5.5273a9.6285,9.6285,0,0,0,1.7983-.1729A.9.9,0,0,0,126.394,150.4033ZM103.6352,166.917H96.4687a.9.9,0,0,0,0,1.8008h7.1665a.9.9,0,0,0,0-1.8008Zm-14.333,0H82.1357a.9.9,0,0,0,0,1.8008h7.1665a.9.9,0,0,0,0-1.8008Zm42.999,0h-7.1665a.9.9,0,0,0,0,1.8008h7.1665a.9.9,0,0,0,0-1.8008Zm-.5161-28.1026a.9.9,0,0,0-.5962,1.1241,7.6659,7.6659,0,0,1-.7519,6.1787.9.9,0,1,0,1.542.9277,9.4638,9.4638,0,0,0,.9306-7.6338A.8989.8989,0,0,0,131.7851,138.8144Zm14.8491,28.1026h-7.1665a.9.9,0,0,0,0,1.8008h7.1665a.9.9,0,0,0,0-1.8008Zm-71.665,0H67.8027a.9.9,0,0,0,0,1.8008h7.1665a.9.9,0,0,0,0-1.8008ZM104.0215,151.63h7.1665a.9.9,0,0,0,0-1.8008h-7.1665a.9.9,0,0,0,0,1.8008Zm-28.6661,0h7.1665a.9.9,0,0,0,0-1.8008H75.3554a.9.9,0,0,0,0,1.8008Zm14.333,0h7.1665a.9.9,0,0,0,0-1.8008H89.6884a.9.9,0,0,0,0,1.8008Zm-30.2436,7.6435.0019-.1728a.8993.8993,0,0,0-.8793-.92.88.88,0,0,0-.92.879l-.0019.2138a9.48,9.48,0,0,0,2.9726,6.878.9.9,0,1,0,1.2334-1.3106A7.57,7.57,0,0,1,59.4448,159.2734Zm2.0767-5.581a.899.899,0,0,0,.5859-.2178,7.6485,7.6485,0,0,1,4.9814-1.8447h1.1a.9.9,0,0,0,0-1.8008h-1.1a9.45,9.45,0,0,0-6.1543,2.28.9.9,0,0,0,.587,1.583ZM314.77,166.917h-7.4248a.9.9,0,0,0,0,1.8008H314.77a.9.9,0,0,0,0-1.8008Zm29.6982,0h-7.4248a.9.9,0,0,0,0,1.8008h7.4248a.9.9,0,1,0,0-1.8008Zm-2.708,17.0879h-7.4248a.9.9,0,1,0,0,1.8007H341.76a.9.9,0,1,0,0-1.8007ZM329.6181,166.917h-7.4248a.9.9,0,1,0,0,1.8008h7.4248a.9.9,0,0,0,0-1.8008ZM319.3525,151.63h7.4248a.9.9,0,0,0,0-1.8008h-7.4248a.9.9,0,0,0,0,1.8008Zm7.5576,32.375h-7.4248a.9.9,0,1,0,0,1.8007H326.91a.9.9,0,1,0,0-1.8007Zm7.292-32.375H340.81c.3037,0,.6036-.0147.9-.042a.9005.9005,0,0,0-.17-1.793c-.24.0234-.4834.0342-.7305.0342h-6.6074a.9.9,0,0,0,0,1.8008Zm50.0869,29.0019a7.6275,7.6275,0,0,1-5.5058,3.3291.9.9,0,0,0,.0967,1.7949.8487.8487,0,0,0,.0986-.0058,9.4235,9.4235,0,0,0,6.8027-4.11.9.9,0,1,0-1.4922-1.0078ZM374.167,166.917h-7.4248a.9.9,0,0,0,0,1.8008h7.4248a.9.9,0,0,0,0-1.8008Zm12.87,6.872a9.4317,9.4317,0,0,0-5.1826-6.0293.9.9,0,1,0-.7461,1.6387,7.6293,7.6293,0,0,1,4.1963,4.8789.9.9,0,0,0,.8662.6563.8833.8833,0,0,0,.2441-.0342A.9.9,0,0,0,387.0371,173.789ZM304.5029,151.63h7.4248a.9.9,0,0,0,0-1.8008h-7.4248a.9.9,0,0,0,0,1.8008Zm52.1064,32.375h-7.4248a.9.9,0,1,0,0,1.8007h7.4248a.9.9,0,1,0,0-1.8007Zm2.7081-17.0879h-7.4249a.9.9,0,0,0,0,1.8008h7.4249a.9.9,0,0,0,0-1.8008Zm12.1406,17.0879h-7.4239a.9.9,0,0,0,0,1.8007h7.4239a.9.9,0,1,0,0-1.8007Zm-21.2041-41.8194a9.4642,9.4642,0,0,0-.3213-2.4482.9.9,0,1,0-1.7383.4668,7.6691,7.6691,0,0,1-1.1035,6.3389.9.9,0,1,0,1.4785,1.0273A9.4039,9.4039,0,0,0,350.2539,142.1855Zm-67.8916,41.8194h-7.4248a.9.9,0,1,0,0,1.8007h7.4248a.9.9,0,0,0,0-1.8007Zm3.3574-24.7315a7.6765,7.6765,0,0,1,.2705-2.0254.9.9,0,0,0-1.7363-.4746A9.4635,9.4635,0,0,0,285.57,164.61a.9.9,0,0,0,1.4844-1.0175A7.5986,7.5986,0,0,1,285.72,159.2734Zm14.2,7.6436h-6.5567c-.2626,0-.5224-.0127-.7773-.0381a.9.9,0,1,0-.1777,1.791c.3134.0313.6318.0479.955.0479H299.92a.9.9,0,0,0,0-1.8008ZM289.7705,152.42a.9023.9023,0,0,0,.3779-.084,7.5842,7.5842,0,0,1,3.2148-.706h3.7149a.9.9,0,0,0,0-1.8008h-3.7149a9.37,9.37,0,0,0-3.9726.874.9.9,0,0,0,.38,1.7168Zm7.44,31.585h-7.4248a.9.9,0,1,0,0,1.8007h7.4248a.9.9,0,1,0,0-1.8007Zm14.85,0h-7.4248a.9.9,0,1,0,0,1.8007h7.4248a.9.9,0,1,0,0-1.8007ZM340.81,134.543a7.5931,7.5931,0,0,1,3.211.7031.9.9,0,1,0,.7558-1.6328,9.3661,9.3661,0,0,0-3.9668-.8711.9.9,0,0,0,0,1.8008Z" fill="#84919c"/><path d="M221.7177,125.2959l-.9687-1.75a3.2578,3.2578,0,0,0,1.3711-3.3828c-.3-1.9366-1.6387-3.6084-4.2149-5.2608-4.3554-2.7949-9.1132-4.2509-14.15-5.7929-1.461-.4473-2.9244-.8955-4.3794-1.378-2.3443-.7783-4.8907-1.39-7.3536-1.9814-4.9941-1.2-10.1582-2.4409-14.5268-5.1919a7.8615,7.8615,0,0,1-3.6958-4.9653c-.8809-4.5591,3.7314-8.0289,13.709-10.313a91.6279,91.6279,0,0,1,11.7431-1.6416c2.2393-.2144,4.5547-.4361,6.8057-.7535l.2793,1.9805c-2.2954.3237-4.6333.5474-6.8945.7637a90.2286,90.2286,0,0,0-11.4873,1.6c-8.6045,1.97-12.82,4.7309-12.1914,7.9844a5.8776,5.8776,0,0,0,2.7973,3.6523c4.09,2.5757,9.0918,3.7773,13.9287,4.9395,2.503.601,5.0913,1.2231,7.5161,2.0278,1.44.4785,2.8887.9209,4.335,1.3642,4.9448,1.5127,10.0576,3.0782,14.645,6.0215,1.9463,1.2491,4.5938,3.2959,5.1113,6.6377A5.2241,5.2241,0,0,1,221.7177,125.2959Z" fill="#edeff2"/><path d="M226.1806,54.7475c-.2695-1.1254-1.665-1.8642-2.6914-2.3227a66.4238,66.4238,0,0,0-10.0381-3.2476c-2.1147-.5625-4.3012-1.144-6.4257-1.8506-.4615-.1533-.9307-.3042-1.4048-.4565-3.4488-1.1089-7.3574-2.3657-9.9976-5.2446a5.6651,5.6651,0,0,1-1.5771-2.9761c-.5669-3.7773,3.4414-5.9844,6.0932-7.4448.2583-.1421.5044-.2774.7315-.4068l1.1538-.6494a33.114,33.114,0,0,0,7.0185-4.7578,16.0337,16.0337,0,0,0,4.5947-14.6641l1.9454-.4648c1.3437,5.6187-.7246,12.2754-5.1475,16.5645a34.6257,34.6257,0,0,1-7.4331,5.0668l-1.1435.6441c-.2349.1328-.4883.2729-.7549.4194-2.2959,1.2642-5.4405,2.9956-5.0806,5.396a3.784,3.784,0,0,0,1.0732,1.9214c2.2828,2.4883,5.7666,3.6089,9.1363,4.6924.48.1543.956.3071,1.4233.4629,2.0669.687,4.2232,1.2607,6.3091,1.8149a67.9746,67.9746,0,0,1,10.3394,3.3545c1.4121.63,3.3466,1.6987,3.8212,3.6841Z" fill="#edeff2"/><path d="M319.7252,133.6464h-12.93a10.45,10.45,0,1,1,0-20.9h12.93a10.45,10.45,0,1,0,0,20.9Z" fill="#9aa4ad"/><rect x="309.2772" y="112.7477" width="85.393" height="20.9022" rx="10.4511" fill="#edeff2"/><path d="M319.7284,129.65a6.4512,6.4512,0,1,1,0-12.9023h64.49a6.4512,6.4512,0,1,1,0,12.9023Z" fill="#c6cacf"/><path d="M384.16,116.7477H381.041a6.4512,6.4512,0,1,1,0,12.9023h3.1776a6.4514,6.4514,0,1,0-.0582-12.9023Z" fill="#9aa4ad"/><path d="M326.5821,108.0669h55.91a5,5,0,0,0,5-5V63.28a5,5,0,0,0-5-5h-33.7a10,10,0,0,0-9.4012,6.5914l-14.6893,40.5141A2,2,0,0,0,326.5821,108.0669Z" fill="#ffdb86"/><path d="M339.3912,64.871l.0114-.0279a.0765.0765,0,0,1-.0135.0269Z" fill="#ffc335"/><path d="M348.783,58.28H331.5491a9.9715,9.9715,0,0,0-9.38,6.55h17.2388A9.9986,9.9986,0,0,1,348.783,58.28Z" fill="#ffc335"/><path d="M326.5821,108.0669a2,2,0,0,1-1.88-2.6817L331.1358,87.64H313.8891l-6.43,17.75a2,2,0,0,0,1.88,2.68Z" fill="#ffc335"/><path d="M339.3912,64.871c.0047-.013.0109-.0252.0156-.0382H322.1624c-.0048.013-.0109.0252-.0156.0382l-8.2559,22.77h17.2444Z" fill="#fff"/><path d="M324.8669,96.5834l-2.6707,7.5915L219.1,10.2894l.19-.1852a1.43,1.43,0,0,1,1.9039-.0819L324.247,94.372A2,2,0,0,1,324.8669,96.5834Z" fill="#edeff2"/><path d="M322.1962,104.1749H311.2776a2,2,0,0,1-1.4145-.586L218.8615,12.5518a1.4306,1.4306,0,0,1-.0026-2.02l.241-.2423Z" fill="#9aa4ad"/><path d="M356.9474,87.6413h0l7.2318-20.1039a1.9969,1.9969,0,0,0-1.8717-2.677c-4.476-.01-13.0233-.0215-16.3789-.0258a1.9875,1.9875,0,0,0-1.8772,1.32c-1.7365,4.8267-7.758,21.5636-10.121,28.1315a1.9987,1.9987,0,0,0,1.8827,2.6748h9.542l.7863-1.9816A11.6258,11.6258,0,0,1,356.9474,87.6413Z" fill="#fff"/><path d="M381.7553,64.8328h-8.7047a4,4,0,0,0-3.76,2.6366l-2.6928,7.4268a1,1,0,0,0,.94,1.3408h14.2179a1,1,0,0,0,1-1V65.8328A1,1,0,0,0,381.7553,64.8328Z" fill="#fff"/><path d="M382.7553,101.9737V96.97c.0047-.013-24.3762-.013-24.3809,0l-1.8141,5.0035Z" fill="#ffc335"/><path d="M382.7553,92.6546V87.6511c.0047-.013-20.8336-.013-20.8383,0L360.09,92.6546Z" fill="#ffc335"/><circle cx="214.6105" cy="5.7574" r="5.2433" fill="#9aa4ad"/><path d="M214.6106.514a5.2,5.2,0,0,0-2.7532.7987,5.2212,5.2212,0,0,0,7.1978,7.1978A5.2213,5.2213,0,0,0,214.6106.514Z" fill="#c6cacf"/><circle cx="215.602" cy="5.2459" r="1.3108" fill="#fff"/><circle cx="320.3993" cy="123.1988" r="1.7478" fill="#fff"/><circle cx="333.141" cy="123.1988" r="1.7478" fill="#fff"/><circle cx="345.8827" cy="123.1988" r="1.7478" fill="#fff"/><circle cx="358.6243" cy="123.1988" r="1.7478" fill="#fff"/><circle cx="371.366" cy="123.1988" r="1.7478" fill="#fff"/><circle cx="384.1076" cy="123.1988" r="1.7478" fill="#fff"/><path d="M243.9414,71.56a.5.5,0,0,1-.45.5459L231.99,73.2222c-.0156.0014-.0322.0024-.0488.0024a.5.5,0,0,1-.0469-.9976l11.501-1.1162A.5139.5139,0,0,1,243.9414,71.56Zm-3.6221,10.8028-9.39-5.8472a.5.5,0,1,0-.5293.8486l9.39,5.8472a.5.5,0,1,0,.5293-.8486ZM207.8432,60.9765a.5.5,0,0,0-.6328.7745l7.7,6.2949a.5.5,0,0,0,.6333-.7744Zm6.1221,10.3975-11.0566-.35a.4749.4749,0,0,0-.5152.4839.4991.4991,0,0,0,.4839.5151l11.0566.35.0162.0005a.5.5,0,0,0,.0151-1Z" fill="#84919c"/><rect y="133.1499" width="428.6503" height="1" fill="#4d5860"/><path d="M166.2324,113.7351a10.0655,10.0655,0,0,0-11.2563,8.7137l-7.9351,62.3226a8.681,8.681,0,0,0,7.5149,9.7078l5.6522.72a8.6761,8.6761,0,0,1-6.39-9.48l7.9352-62.3226a10.0656,10.0656,0,0,1,11.2563-8.7137" fill="#9aa4ad"/><path d="M266.206,126.5487l-93.3085-11.88a9.9526,9.9526,0,0,0-11.13,8.6159l-.818,6.4246,113.0542,14.3944.818-6.4246A9.9525,9.9525,0,0,0,266.206,126.5487Z" fill="#ffc335"/><path d="M160.95,129.7088l-7.1315,56.01a8.6809,8.6809,0,0,0,7.5149,9.7078l95.8317,12.2015a8.6808,8.6808,0,0,0,9.7078-7.5149l7.1313-56.01Z" fill="#edeff2"/><path d="M161.7676,123.2842a9.9526,9.9526,0,0,1,11.13-8.6158l-6.7772-.9476a9.9526,9.9526,0,0,0-11.13,8.6159l-.818,6.4246,6.7772.9476Z" fill="#bf9228"/><circle cx="170.7952" cy="122.6816" r="2.0038" fill="#fff"/><circle cx="183.8623" cy="124.3453" r="2.0038" fill="#fff"/><circle cx="196.9294" cy="126.0091" r="2.0038" fill="#fff"/><path d="M182.8919,151.5893a1.0439,1.0439,0,0,1,1.1539-.8928l14.25,1.8143a1.0441,1.0441,0,0,1,.8924,1.1535l-.3426,2.6907a1.0438,1.0438,0,0,1-1.153.8934l-10.65-1.356-1.0348,4.7979a6.7629,6.7629,0,0,1,2.09-.2345q1.0132.0522,1.6585.1343a13.2652,13.2652,0,0,1,3.8692,1.07,9.0468,9.0468,0,0,1,2.931,2.0867,7.9811,7.9811,0,0,1,1.7347,3.0135,8.8879,8.8879,0,0,1,.28,3.8487,10.1351,10.1351,0,0,1-1.3057,4.0507,7.8384,7.8384,0,0,1-2.4838,2.5722,8.5461,8.5461,0,0,1-3.3719,1.2273,14.3543,14.3543,0,0,1-3.9311.0191,14.811,14.811,0,0,1-4.414-1.1783,9.11,9.11,0,0,1-2.8976-2.0436,7.0184,7.0184,0,0,1-1.5539-2.6245,7.6274,7.6274,0,0,1-.3412-2.9129.8432.8432,0,0,1,.3787-.7028,1.09,1.09,0,0,1,.7753-.1905l3.0691.3907a1.0718,1.0718,0,0,1,.6517.3333,1.2676,1.2676,0,0,1,.3317.7165,3.3875,3.3875,0,0,0,.5394,1.5129,3.8071,3.8071,0,0,0,1.0256,1.0163,4.6959,4.6959,0,0,0,1.3853.6192,11.78,11.78,0,0,0,1.6531.3262,5.1022,5.1022,0,0,0,3.6358-.731,4.1138,4.1138,0,0,0,1.7371-3.0523,3.6179,3.6179,0,0,0-.9651-3.0113,5.36,5.36,0,0,0-3.3366-1.6187,7.6272,7.6272,0,0,0-1.8217-.0593,4.7828,4.7828,0,0,0-1.1313.2608c-.2973.1158-.5672.217-.8083.3011a1.9626,1.9626,0,0,1-.8933.06l-3.4872-.444a1.0441,1.0441,0,0,1-.8935-1.1531Z" fill="#9aa4ad"/><path d="M223.68,165.795q-.054.7255-.1644,1.5968l-.2268,1.7814-.2268,1.7813q-.111.8721-.2409,1.5862a17.8933,17.8933,0,0,1-1.1823,3.9906,8.7,8.7,0,0,1-2.158,3.0366,8.0535,8.0535,0,0,1-3.3825,1.7655,14.6747,14.6747,0,0,1-9.3809-1.1944,8.0668,8.0668,0,0,1-2.8136-2.5545,8.6869,8.6869,0,0,1-1.3282-3.48,17.8411,17.8411,0,0,1-.1446-4.16q.1062-1.4487.3418-3.2877.234-1.838.4929-3.2686a18.4064,18.4064,0,0,1,1.187-4.0274,8.8463,8.8463,0,0,1,2.1654-3.0945,8.333,8.333,0,0,1,3.371-1.8238,12.0143,12.0143,0,0,1,4.8041-.2167,12.5724,12.5724,0,0,1,4.5817,1.3733,8.0622,8.0622,0,0,1,2.8323,2.5558,8.7063,8.7063,0,0,1,1.3281,3.4815A17.8811,17.8811,0,0,1,223.68,165.795Zm-16.1085,4.6115a7.9552,7.9552,0,0,0,.7693,4.3927,5.544,5.544,0,0,0,7.5426.96,7.9722,7.9722,0,0,0,1.8454-4.06q.2588-1.4293.4809-3.1733t.33-3.1936a7.9745,7.9745,0,0,0-.7693-4.3922,5.5428,5.5428,0,0,0-7.5427-.96,7.9579,7.9579,0,0,0-1.8453,4.0593q-.2591,1.4307-.481,3.1743T207.5711,170.4065Z" fill="#9aa4ad"/><path d="M248.3894,168.9411q-.054.7257-.1645,1.5968l-.2268,1.7814-.2268,1.7814q-.111.8719-.2408,1.5861a17.8986,17.8986,0,0,1-1.1823,3.9906,8.7016,8.7016,0,0,1-2.1581,3.0366,8.0529,8.0529,0,0,1-3.3825,1.7655,14.6747,14.6747,0,0,1-9.3809-1.1944,8.0675,8.0675,0,0,1-2.8136-2.5544,8.6879,8.6879,0,0,1-1.3282-3.4805,17.84,17.84,0,0,1-.1446-4.16q.1062-1.4489.3418-3.2878.234-1.8378.4929-3.2685a18.4112,18.4112,0,0,1,1.1871-4.0275,8.8448,8.8448,0,0,1,2.1653-3.0944,8.335,8.335,0,0,1,3.371-1.8239,12.0163,12.0163,0,0,1,4.8041-.2167,12.5738,12.5738,0,0,1,4.5817,1.3733,8.0615,8.0615,0,0,1,2.8323,2.5559,8.7039,8.7039,0,0,1,1.3281,3.4814A17.8864,17.8864,0,0,1,248.3894,168.9411Zm-16.1086,4.6116a7.9551,7.9551,0,0,0,.7693,4.3926,5.544,5.544,0,0,0,7.5426.96,7.9706,7.9706,0,0,0,1.8454-4.06q.2589-1.4292.4809-3.1733t.33-3.1935a7.9741,7.9741,0,0,0-.7693-4.3922,5.5426,5.5426,0,0,0-7.5426-.96,7.958,7.958,0,0,0-1.8454,4.0593q-.2591,1.4307-.481,3.1743T232.2808,173.5527Z" fill="#9aa4ad"/><rect x="74.9486" y="97.7894" width="59.4063" height="9.1304" rx="1" fill="#ffc335"/><rect x="74.9486" y="111.485" width="59.4063" height="9.1304" rx="1" fill="#ffc335"/><polygon points="126.217 111.485 129.217 111.485 133.397 120.615 130.397 120.615 126.217 111.485" fill="#fff"/><polygon points="117.839 111.485 120.839 111.485 125.02 120.615 122.02 120.615 117.839 111.485" fill="#fff"/><polygon points="109.461 111.485 112.461 111.485 116.642 120.615 113.642 120.615 109.461 111.485" fill="#fff"/><polygon points="101.084 111.485 104.084 111.485 108.265 120.615 105.265 120.615 101.084 111.485" fill="#fff"/><polygon points="92.706 111.485 95.706 111.485 99.887 120.615 96.887 120.615 92.706 111.485" fill="#fff"/><polygon points="84.329 111.485 87.329 111.485 91.51 120.615 88.51 120.615 84.329 111.485" fill="#fff"/><polygon points="75.951 111.485 78.951 111.485 83.132 120.615 80.132 120.615 75.951 111.485" fill="#fff"/><polygon points="126.217 97.789 129.217 97.789 133.397 106.92 130.397 106.92 126.217 97.789" fill="#fff"/><polygon points="117.839 97.789 120.839 97.789 125.02 106.92 122.02 106.92 117.839 97.789" fill="#fff"/><polygon points="109.461 97.789 112.461 97.789 116.642 106.92 113.642 106.92 109.461 97.789" fill="#fff"/><polygon points="101.084 97.789 104.084 97.789 108.265 106.92 105.265 106.92 101.084 97.789" fill="#fff"/><polygon points="92.706 97.789 95.706 97.789 99.887 106.92 96.887 106.92 92.706 97.789" fill="#fff"/><polygon points="84.329 97.789 87.329 97.789 91.51 106.92 88.51 106.92 84.329 97.789" fill="#fff"/><polygon points="75.951 97.789 78.951 97.789 83.132 106.92 80.132 106.92 75.951 97.789" fill="#fff"/></svg>