<svg xmlns="http://www.w3.org/2000/svg" viewBox="0 0 428.6503 258.1245"><title>Generic</title><polygon points="94.484 156.02 87.821 142.092 84.691 144.82 81.566 147.557 78.437 150.284 75.312 153.021 72.692 155.306 74.703 159.51 78.126 158.903 82.218 158.187 86.305 157.461 90.397 156.745 94.484 156.02" fill="#ffc335"/><rect x="80.4099" y="147.6217" width="23.2885" height="2" transform="translate(186.3901 1.4379) rotate(64.4309)" fill="#ffdb86"/><polygon points="84.691 144.82 90.397 156.745 86.305 157.461 81.566 147.557 84.691 144.82" fill="#fff"/><polygon points="78.437 150.284 82.218 158.187 78.126 158.903 75.312 153.021 78.437 150.284" fill="#fff"/><rect x="221.9825" y="192.5089" width="32.3725" height="32.3725" fill="#ffdb86"/><rect x="142.0562" y="192.5089" width="32.3725" height="32.3725" fill="#9aa4ad"/><path d="M29.0549,224.8814H93.8v32.3725H29.0549Zm32.3575-32.3826h64.745V160.1263H61.4124Zm80.6438,32.3826v32.3725h64.745V224.8814Zm48.5587-97.1325H158.2424v32.3724h32.3725Z" fill="#c6cacf"/><rect x="158.5252" y="160.1223" width="15.9" height="32.38" fill="#ffc335"/><rect x="109.9869" y="127.7489" width="48.2555" height="32.3725" fill="#ffdb86"/><rect x="45.5443" y="192.5065" width="48.2555" height="32.3725" fill="#ffdb86"/><path d="M271.5461,224.8814v32.3725H206.8012V224.8865H174.4287V160.139l32.3733-.0077,15.18,15.1882v49.5619Z" fill="#edeff2"/><polygon points="142.056 208.392 126.173 192.501 93.8 192.509 93.8 257.256 142.056 257.256 142.056 208.392" fill="#ffdb86"/><path d="M381.4445,21.2725H227.2277a1,1,0,0,1-.707-1.7071L245.7922.293a.9993.9993,0,0,1,.707-.293H362.4748a1.0021,1.0021,0,0,1,.7129.2983l18.6758,18.9742h32.5049a1,1,0,0,1,0,2H381.4445Zm-151.8027-2h149.415L362.0559,2H246.9133Z" fill="#9aa4ad"/><rect x="236.968" y="62.2827" width="1" height="12.5272" fill="#edeff2"/><rect x="234.9074" y="24.9614" width="1" height="32.154" fill="#edeff2"/><circle cx="237.468" cy="57.0394" r="5.2433" fill="#c6cacf"/><circle cx="239.5141" cy="57.0394" r="1.3108" fill="#edeff2"/><path d="M234.3221,57.0394a5.2447,5.2447,0,0,1,4.1947-5.138,5.2433,5.2433,0,1,0,0,10.276A5.2448,5.2448,0,0,1,234.3221,57.0394Z" fill="#9aa4ad"/><polygon points="383.084 257.417 381.084 257.417 381.084 25.961 355.917 25.961 355.917 257.417 353.917 257.417 353.917 23.961 383.084 23.961 383.084 257.417" fill="#c6cacf"/><polygon points="353.917 23.961 343.808 23.961 343.808 257.417 345.808 257.417 345.808 25.961 353.917 25.961 353.917 23.961" fill="#9aa4ad"/><path d="M383.0842,40.0717v-16.11h-29.167V257.4175h2v-.0391l.2266.2266,12.3569-12.3574,12.8765,12.8769.707-.707h1V40.0717ZM356.3313,148.7476l12.1694-12.17,12.1694,12.17L368.5007,160.917Zm24.3388,27.167-12.1694,12.17-12.1694-12.17,12.1694-12.1695ZM356.3313,121.58l12.1694-12.17L380.67,121.58l-12.1694,12.17Zm0-27.1675,12.1694-12.17,12.1694,12.17-12.1694,12.17Zm0-27.1675,12.1694-12.17,12.1694,12.17-12.1694,12.17Zm0-27.1679,12.1694-12.17,12.17,12.169-12.17,12.17Zm10.7553,13.5839-11.1694,11.17v-22.34Zm0,27.1678-11.1694,11.17V69.6588Zm0,27.1674-11.1694,11.17V96.8262Zm0,27.1678-11.1694,11.17v-22.34Zm0,27.1675-11.1694,11.1694V151.1616Zm0,27.1674-11.1694,11.17v-22.34Zm-10.7553,13.584,12.1694-12.17,12.1694,12.17-12.1694,12.17Zm10.7553,13.5835-11.1694,11.1694V205.4966Zm13.9976-11.1694v22.3388l-11.17-11.1694Zm-11.17-15.9981,11.17-11.17v22.34Zm0-27.1674,11.17-11.1695v22.3389Zm0-27.1675,11.17-11.17v22.34Zm0-27.1678,11.17-11.17v22.3393Zm0-27.1674,11.17-11.17V91.998Zm0-27.1678,11.17-11.17v22.34Zm11.17-15.9989L369.9148,26.4931l.5317-.5317h10.6377Zm-14.5293-11.7.5317.5318L355.9172,37.6626V25.9614Zm-10.6377,229.042v-22.34l11.1694,11.17Zm.4141-24.7539L368.5007,218.08,380.67,230.25l-12.1694,12.17Zm24.7529,2.4141v22.34l-11.17-11.17Z" fill="#c6cacf"/><rect x="368.2488" y="31.0372" width="27.671" height="43.2766" fill="#ffdb86"/><rect x="374.7654" y="36.6757" width="14.6388" height="17.3609" transform="translate(427.4409 -336.7286) rotate(90)" fill="#fff"/><rect x="360.9723" y="31.0372" width="7.2766" height="43.2766" fill="#ffc335"/><rect x="360.9723" y="74.2841" width="34.9476" height="2" fill="#c6cacf"/><rect x="360.9723" y="74.2841" width="7.2766" height="2" fill="#9aa4ad"/><rect x="239.0285" y="26.2224" width="1" height="30.8931" fill="#edeff2"/><rect x="250.2001" y="21.2725" width="9.0038" height="5.7019" fill="#9aa4ad"/><path d="M426.5617,19.2725H403.7229L385.0471.2983A1.0021,1.0021,0,0,0,384.3342,0H269.6623a1.007,1.007,0,0,0-.707.293L250.062,19.1862H227.3672a1.1979,1.1979,0,0,0-1.1979,1.1979v6.59H250.2V21.2725H426.5617a1,1,0,0,0,0-2ZM329.9758,2h16.1719l-8.4756,8.4756-8.086-8.086Zm-19.001,0h15.3936l.39.39-8.0864,8.0865L310.5852,2.39Zm-19,0h15.3926l.39.39-8.0859,8.086L291.5852,2.39Zm-3.2178.39-9.535,9.5351-9.535-9.5353L270.0764,2h18.291ZM252.8039,19.2725l15.469-15.469,9.535,9.5352-5.9337,5.9338Zm21.8984,0,4.52-4.52,4.52,4.52Zm11.8672,0-5.9335-5.9337,9.5351-9.5351L298.257,11.89l-7.3828,7.3829Zm7.1328,0,5.9688-5.9688,5.9687,5.9688Zm14.7657,0L301.0852,11.89l8.0859-8.0859,8.0864,8.0864-7.3823,7.3824Zm4.2353,0,5.9683-5.9683,5.9682,5.9683Zm14.7647,0L320.0856,11.89l8.0865-8.0864L336.258,11.89l-7.3828,7.3829Zm4.2353,0,5.9688-5.9688,5.9687,5.9688Zm14.7656,0L339.0861,11.89l9.89-9.89h14.8789L346.5822,19.2725Zm2.9415,0L366.6828,2h17.2324l17.001,17.2725Z" fill="#c6cacf"/><rect x="126.1574" y="160.1263" width="32.3725" height="32.3725" fill="#ffdb86"/><rect x="77.9052" y="192.5123" width="15.9" height="32.37" fill="#ffc335"/><rect x="45.5365" y="192.5089" width="32.3725" height="32.3725" fill="#ffdb86"/><rect x="45.5352" y="192.5123" width="0.02" height="32.37" fill="#ffdb86"/><rect x="213.1955" y="74.8099" width="32.3725" height="32.3725" fill="#ffdb86"/><rect x="245.568" y="74.8099" width="16.1724" height="32.3725" fill="#ffc335"/><rect x="142.3552" y="127.7422" width="15.9" height="32.37" fill="#ffc335"/><rect x="109.9791" y="127.7437" width="32.3725" height="32.3725" fill="#ffdb86"/><rect x="126.1552" y="160.1223" width="0.02" height="32.38" fill="#ffdb86"/><rect x="109.9752" y="127.7422" width="0.02" height="32.37" fill="#ffdb86"/><g opacity="0.5"><polyline points="29.055 257.254 29.055 224.881 45.544 224.879 45.544 192.506 61.412 192.499 61.412 160.126 109.987 160.121 109.987 127.749 190.615 127.749 190.615 160.121 206.802 160.131 221.982 175.319 221.982 192.509 254.355 192.509 254.355 224.881 271.546 224.881 271.546 257.254" fill="#fff"/></g><path d="M270.5464,257.2537v-3.5a1,1,0,0,1,2,0v3.5C272.5464,257.8064,270.5464,257.8064,270.5464,257.2537Z" fill="#84919c"/><path d="M271.5464,246.2966a.9993.9993,0,0,1-1-1V236.84a1,1,0,1,1,2,0v8.457A.9994.9994,0,0,1,271.5464,246.2966Z" fill="#84919c"/><path d="M271.5464,229.3816a.9994.9994,0,0,1-1-1v-2.5h-2.5a1,1,0,0,1,0-2h3.5a1,1,0,0,1,1,1v3.5A1,1,0,0,1,271.5464,229.3816Z" fill="#84919c"/><path d="M257.8549,225.8816h-3.5a1,1,0,0,1-1-1v-3.5a1,1,0,0,1,2,0v2.5h2.5a1,1,0,0,1,0,2Z" fill="#84919c"/><path d="M254.3549,213.9236a1,1,0,0,1-1-1v-8.457a1,1,0,0,1,2,0v8.457A.9994.9994,0,0,1,254.3549,213.9236Z" fill="#84919c"/><path d="M254.3549,197.0085a.9994.9994,0,0,1-1-1v-2.5h-2.5a1,1,0,0,1,0-2h3.5a.9994.9994,0,0,1,1,1v3.5A.9993.9993,0,0,1,254.3549,197.0085Z" fill="#84919c"/><path d="M242.3974,193.5085H233.94a1,1,0,0,1,0-2h8.4575a1,1,0,0,1,0,2Z" fill="#84919c"/><path d="M225.4824,193.5085h-3.5a1,1,0,0,1-1-1v-3.5a1,1,0,0,1,2,0v2.5h2.5a1,1,0,0,1,0,2Z" fill="#84919c"/><path d="M221.9824,183.1736a1,1,0,0,1-1-1v-6.836a1,1,0,0,1,2,0v6.836A1,1,0,0,1,221.9824,183.1736Zm-4.8193-11.6758a.998.998,0,0,1-.7076-.293L211.623,166.37a1,1,0,0,1,1.4151-1.4141l4.8325,4.835a1,1,0,0,1-.7075,1.707Zm-9.6651-9.67a.998.998,0,0,1-.7075-.293l-.4028-.4033-5.437-.0039a1,1,0,0,1,0-2h.0005l5.8511.0039a1,1,0,0,1,.707.293l.6958.6962a1,1,0,0,1-.7075,1.7071Z" fill="#84919c"/><path d="M194.1147,161.1238h-.001l-3.5-.003a1,1,0,0,1-.999-1v-3.5a1,1,0,0,1,2,0v2.501l2.501.002a1,1,0,0,1-.001,2Z" fill="#84919c"/><path d="M190.6147,149.1638a1,1,0,0,1-1-1v-8.457a1,1,0,0,1,2,0v8.457A1,1,0,0,1,190.6147,149.1638Z" fill="#84919c"/><path d="M190.6147,132.2488a1,1,0,0,1-1-1v-2.5h-2.5a1,1,0,0,1,0-2h3.5a1,1,0,0,1,1,1v3.5A1,1,0,0,1,190.6147,132.2488Z" fill="#84919c"/><path d="M181.4057,128.7488h-5.7094a1,1,0,0,1,0-2h5.7094a1,1,0,0,1,0,2Z" fill="#84919c"/><path d="M169.9873,128.7488h-3.5a1,1,0,0,1-1-1v-3.5a1,1,0,0,1,2,0v2.5h2.5a1,1,0,1,1,0,2Z" fill="#84919c"/><path d="M166.4873,116.7913a1,1,0,0,1-1-1v-8.4576a1,1,0,0,1,2,0v8.4576A1,1,0,0,1,166.4873,116.7913Z" fill="#84919c"/><path d="M166.4873,99.8762a1,1,0,0,1-1-1v-2.5h-2.5a1,1,0,0,1,0-2h3.5a1,1,0,0,1,1,1v3.5A1,1,0,0,1,166.4873,99.8762Z" fill="#84919c"/><path d="M154.53,96.3762h-8.4576a1,1,0,0,1,0-2H154.53a1,1,0,0,1,0,2Z" fill="#84919c"/><path d="M134.1147,99.8762a1,1,0,0,1-1-1v-3.5a1,1,0,0,1,1-1h3.5a1,1,0,0,1,0,2h-2.5v2.5A1,1,0,0,1,134.1147,99.8762Z" fill="#84919c"/><path d="M134.1147,116.7913a1,1,0,0,1-1-1v-8.4576a1,1,0,0,1,2,0v8.4576A1,1,0,0,1,134.1147,116.7913Z" fill="#84919c"/><path d="M134.1147,128.7488h-3.5a1,1,0,0,1,0-2h2.5v-2.5a1,1,0,1,1,2,0v3.5A1,1,0,0,1,134.1147,128.7488Z" fill="#84919c"/><path d="M124.9052,128.7488h-5.7094a1,1,0,0,1,0-2h5.7094a1,1,0,1,1,0,2Z" fill="#84919c"/><path d="M109.9868,132.2488a1,1,0,0,1-1-1v-3.5a1,1,0,0,1,1-1h3.5a1,1,0,0,1,0,2h-2.5v2.5A1,1,0,0,1,109.9868,132.2488Z" fill="#84919c"/><path d="M109.9868,149.1638a1,1,0,0,1-1-1v-8.457a1,1,0,0,1,2,0v8.457A1,1,0,0,1,109.9868,149.1638Z" fill="#84919c"/><path d="M106.4873,161.1218a1,1,0,0,1-.001-2l2.5005-.001v-2.5a1,1,0,0,1,2,0v3.5a1,1,0,0,1-.9995,1Z" fill="#84919c"/><path d="M70.852,161.1257a1,1,0,0,1,0-2l5.939-.0009a1,1,0,0,1,0,2Zm11.8784-.0009a1,1,0,0,1,0-2l5.939-.001a1,1,0,0,1,0,2Zm11.8785-.001a1,1,0,0,1,0-2l5.9389-.001a1,1,0,1,1,0,2Z" fill="#84919c"/><path d="M61.4126,164.6267a1,1,0,0,1-1-1v-3.5a1,1,0,0,1,1-1l3.5-.001a1,1,0,0,1,.001,2l-2.5005.001v2.5A1,1,0,0,1,61.4126,164.6267Z" fill="#84919c"/><path d="M61.4126,181.5408a1,1,0,0,1-1-1v-8.4571a1,1,0,0,1,2,0v8.4571A1,1,0,0,1,61.4126,181.5408Z" fill="#84919c"/><path d="M57.9126,193.5007a1,1,0,0,1,0-2l2.5-.0009v-2.501a1,1,0,0,1,2,0v3.5a1,1,0,0,1-.9995,1l-3.5.0019Z" fill="#84919c"/><path d="M45.5444,197.0066a1,1,0,0,1-1-1v-3.5a1,1,0,0,1,.9995-1l3.5-.002h.0005a1,1,0,0,1,0,2l-2.5.001v2.501A1,1,0,0,1,45.5444,197.0066Z" fill="#84919c"/><path d="M45.5444,213.9207a1,1,0,0,1-1-1v-8.4571a1,1,0,0,1,2,0v8.4571A1,1,0,0,1,45.5444,213.9207Z" fill="#84919c"/><path d="M42.0449,225.88a1,1,0,0,1-.001-2l2.5005-.0009v-2.5a1,1,0,0,1,2,0v3.5a1,1,0,0,1-1,1Z" fill="#84919c"/><path d="M29.0547,229.3816a1,1,0,0,1-1-1v-3.5a1,1,0,0,1,1-1l3.5-.001a1,1,0,1,1,.0009,2l-2.5.001v2.5A1,1,0,0,1,29.0547,229.3816Z" fill="#84919c"/><path d="M29.0547,246.2957a1,1,0,0,1-1-1v-8.4571a1,1,0,0,1,2,0v8.4571A1,1,0,0,1,29.0547,246.2957Z" fill="#84919c"/><path d="M28.0547,257.2537v-3.5a1,1,0,0,1,2,0v3.5C30.0547,257.8064,28.0547,257.8064,28.0547,257.2537Z" fill="#84919c"/><path d="M270.5491,219.3565v10.049h2v-10.049a2.6216,2.6216,0,1,0-2,0Z" fill="#c6cacf"/><polygon points="272.549 254.898 272.549 237.536 270.549 237.536 270.549 254.898 266.762 254.898 266.762 256.898 270.549 256.898 272.549 256.898 276.336 256.898 276.336 254.898 272.549 254.898" fill="#c6cacf"/><path d="M308.0592,219.3564v8.8918h2v-8.8916a2.6215,2.6215,0,1,0-2,0Z" fill="#c6cacf"/><polygon points="310.059 254.898 310.059 239.825 308.059 239.825 308.059 254.898 304.272 254.898 304.272 256.898 308.059 256.898 310.059 256.898 313.847 256.898 313.847 254.898 310.059 254.898" fill="#c6cacf"/><rect x="260.5786" y="235.2602" width="59.4063" height="9.1304" rx="1" fill="#ffc335"/><rect x="260.5786" y="221.5646" width="59.4063" height="9.1304" rx="1" fill="#ffc335"/><polygon points="311.847 235.26 314.847 235.26 319.027 244.391 316.027 244.391 311.847 235.26" fill="#fff"/><polygon points="303.469 235.26 306.469 235.26 310.65 244.391 307.65 244.391 303.469 235.26" fill="#fff"/><polygon points="295.091 235.26 298.091 235.26 302.272 244.391 299.272 244.391 295.091 235.26" fill="#fff"/><polygon points="286.714 235.26 289.714 235.26 293.895 244.391 290.895 244.391 286.714 235.26" fill="#fff"/><polygon points="278.336 235.26 281.336 235.26 285.517 244.391 282.517 244.391 278.336 235.26" fill="#fff"/><polygon points="269.959 235.26 272.959 235.26 277.14 244.391 274.14 244.391 269.959 235.26" fill="#fff"/><polygon points="261.581 235.26 264.581 235.26 268.762 244.391 265.762 244.391 261.581 235.26" fill="#fff"/><polygon points="311.847 221.565 314.847 221.565 319.027 230.695 316.027 230.695 311.847 221.565" fill="#fff"/><polygon points="303.469 221.565 306.469 221.565 310.65 230.695 307.65 230.695 303.469 221.565" fill="#fff"/><polygon points="295.091 221.565 298.091 221.565 302.272 230.695 299.272 230.695 295.091 221.565" fill="#fff"/><polygon points="286.714 221.565 289.714 221.565 293.895 230.695 290.895 230.695 286.714 221.565" fill="#fff"/><polygon points="278.336 221.565 281.336 221.565 285.517 230.695 282.517 230.695 278.336 221.565" fill="#fff"/><polygon points="269.959 221.565 272.959 221.565 277.14 230.695 274.14 230.695 269.959 221.565" fill="#fff"/><polygon points="261.581 221.565 264.581 221.565 268.762 230.695 265.762 230.695 261.581 221.565" fill="#fff"/><rect y="256.8976" width="428.6503" height="1" fill="#4d5860"/></svg>