<svg xmlns="http://www.w3.org/2000/svg" viewBox="0 0 16 16"><path d="M8,1.5A6.5,6.5,0,1,1,1.5,8,6.50736,6.50736,0,0,1,8,1.5M8,0a8,8,0,1,0,8,8A8.02352,8.02352,0,0,0,8,0ZM9.2,3.2a.92336.92336,0,0,1,1,.9A1.30936,1.30936,0,0,1,8.9,5.3a.94477.94477,0,0,1-1-1A1.22815,1.22815,0,0,1,9.2,3.2Zm-2,9.6c-.5,0-.9-.3-.5-1.7l.6-2.4c.1-.4.1-.5,0-.5-.2-.1-.9.2-1.3.5l-.2-.5A6.49723,6.49723,0,0,1,9.1,6.6c.5,0,.6.6.3,1.6l-.7,2.6c-.1.5-.1.6.1.6a2.00284,2.00284,0,0,0,1.1-.6l.3.4A5.76883,5.76883,0,0,1,7.2,12.8Z" fill="#2b9be3"/></svg>