<svg xmlns="http://www.w3.org/2000/svg" viewBox="0 0 392.9178 230.6317"><title>502</title><rect x="201.533" width="1" height="37.4746" fill="#edeff2"/><rect x="158.5488" y="54.2793" width="47.2209" height="1" transform="translate(-1.0351 105.9906) rotate(-32.3553)" fill="#edeff2"/><circle cx="202.0332" cy="41.7181" r="5.2433" fill="#9aa4ad"/><path d="M202.0332,36.4747a5.2,5.2,0,0,0-2.7532.7987,5.2212,5.2212,0,0,0,7.1978,7.1978,5.2212,5.2212,0,0,0-4.4446-7.9965Z" fill="#c6cacf"/><circle cx="203.0246" cy="41.2065" r="1.3108" fill="#edeff2"/><rect x="220.4007" y="33.6249" width="1" height="49.7321" transform="translate(25.3024 176.6418) rotate(-45.9647)" fill="#edeff2"/><path d="M166.6312,63.8824l75.7174,8.2587a4,4,0,0,1,3.5427,4.41l-5.547,44.235a4,4,0,0,1-4.41,3.5427L160.2167,116.07a4,4,0,0,1-3.5427-4.41l5.5471-44.235A4,4,0,0,1,166.6312,63.8824Z" fill="#c6cacf"/><path d="M159.5167,63.1064l75.7175,8.2587a4,4,0,0,1,3.5427,4.41L233.23,120.01a4,4,0,0,1-4.41,3.5427l-75.7175-8.2587a4,4,0,0,1-3.5427-4.41l5.5471-44.235A4,4,0,0,1,159.5167,63.1064Z" fill="#edeff2"/><polygon points="381.996 155.17 366.556 155.17 367.666 151.17 368.786 147.17 369.896 143.17 371.016 139.17 371.946 135.82 376.606 135.82 377.536 139.17 378.656 143.17 379.766 147.17 380.886 151.17 381.996 155.17" fill="#ffc335"/><rect x="362.6292" y="155.1713" width="23.2885" height="2" fill="#ffdb86"/><polygon points="379.766 147.17 368.786 147.17 367.666 151.17 380.886 151.17 379.766 147.17" fill="#fff"/><polygon points="377.536 139.17 371.016 139.17 369.896 143.17 378.656 143.17 377.536 139.17" fill="#fff"/><polygon points="157.924 153.634 164.588 139.706 167.717 142.434 170.842 145.171 173.971 147.899 177.096 150.635 179.717 152.92 177.705 157.124 174.282 156.517 170.19 155.801 166.103 155.076 162.011 154.359 157.924 153.634" fill="#ffc335"/><rect x="148.7101" y="145.2358" width="23.2885" height="2" transform="translate(361.4775 64.701) rotate(115.5691)" fill="#ffdb86"/><polygon points="167.717 142.434 162.011 154.359 166.103 155.076 170.842 145.171 167.717 142.434" fill="#fff"/><polygon points="173.971 147.899 170.19 155.801 174.282 156.517 177.096 150.635 173.971 147.899" fill="#fff"/><rect x="0.703" y="157.1713" width="167" height="13" fill="#edeff2"/><rect x="155.8307" y="157.1714" width="41.6161" height="12.9999" fill="#c6cacf"/><path d="M71.63,152.1713a8,8,0,1,0-14.826,0H56.785c.0577.1421.1374.2719.2029.41.0717.1518.1421.3042.223.4506.086.1552.1792.3041.275.4527.09.14.1855.2756.2838.41.121.1646.2444.3255.3775.48.155.1808.3167.3556.4871.5218.109.1061.2219.2062.3367.306.1561.1359.3183.264.4847.3877.1169.0867.2317.1747.3534.2551a7.9523,7.9523,0,0,0,.73.4265c.1148.0594.231.1142.3489.1681q.3572.1639.7322.2928c.078.0267.153.0589.2321.0833a7.9774,7.9774,0,0,0,.97.2265c.1017.0178.2036.033.3067.0468a8.0263,8.0263,0,0,0,1.0537.0809l.0226.0017h3a8.008,8.008,0,0,0,7.42-5Z" fill="#9aa4ad"/><path d="M119.63,152.1713a8,8,0,1,0-14.826,0h-.0186c.0577.1421.1374.2719.2029.41.0717.1518.1421.3042.223.4506.086.1552.1792.3041.275.4527.09.14.1855.2756.2838.41.121.1646.2444.3255.3775.48.155.1808.3167.3556.4871.5218.109.1061.2219.2062.3367.306.1561.1359.3183.264.4847.3877.1169.0867.2317.1747.3534.2551a7.9523,7.9523,0,0,0,.73.4265c.1148.0594.231.1142.3489.1681q.3572.1639.7322.2928c.078.0267.153.0589.2321.0833a7.9774,7.9774,0,0,0,.9695.2265c.1017.0178.2036.033.3067.0468a8.0263,8.0263,0,0,0,1.0537.0809l.0226.0017h3a8.008,8.008,0,0,0,7.42-5Z" fill="#9aa4ad"/><path d="M132.6149,138.7013l-1,13.47h-13.01l1-13.47a4.9941,4.9941,0,0,0-3.86-4.86l-9.43-2.22h13.01l9.44,2.22A4.9852,4.9852,0,0,1,132.6149,138.7013Z" fill="#ffc335"/><ellipse cx="123.0912" cy="140.5545" rx="1.4588" ry="2.6628" fill="#fff"/><path d="M122.3864,140.5545a2.8868,2.8868,0,0,1,1.0925-2.5678.8957.8957,0,0,0-.3877-.095c-.8056,0-1.4588,1.1921-1.4588,2.6628s.6532,2.6628,1.4588,2.6628a.8958.8958,0,0,0,.3877-.0951A2.8866,2.8866,0,0,1,122.3864,140.5545Z" fill="#edeff2"/><ellipse cx="130.932" cy="140.5545" rx="1.4588" ry="2.6628" fill="#fff"/><path d="M130.2272,140.5545a2.887,2.887,0,0,1,1.0924-2.5678.8956.8956,0,0,0-.3876-.095c-.8057,0-1.4588,1.1921-1.4588,2.6628s.6531,2.6628,1.4588,2.6628a.8957.8957,0,0,0,.3876-.0951A2.8868,2.8868,0,0,1,130.2272,140.5545Z" fill="#edeff2"/><path d="M119.6049,138.7013l-1,13.47h-81v-40a2.996,2.996,0,0,1,3-3h53a5.0038,5.0038,0,0,1,4.61,3.07l8.1,19.38,9.43,2.22A4.9941,4.9941,0,0,1,119.6049,138.7013Z" fill="#ffdb86"/><path d="M112.3049,114.8413h-13.01l-1.08-2.6a5.0038,5.0038,0,0,0-4.61-3.07h13a5.0071,5.0071,0,0,1,4.62,3.07Z" fill="#ffc335"/><polygon points="112.306 114.837 99.298 114.837 106.31 131.618 119.317 131.618 112.306 114.837" fill="#fff"/><path d="M96.3593,114.8368H83.3519v9.7816a7,7,0,0,0,7,7h13.0189Z" fill="#fff"/><path d="M61.0249,152.1713a8.0081,8.0081,0,0,1-7.42,5h-3a8.0081,8.0081,0,0,1-7.42-5Z" fill="#9aa4ad"/><path d="M110.0249,152.1713a8.0081,8.0081,0,0,1-7.42,5h-3a8.0081,8.0081,0,0,1-7.42-5Z" fill="#9aa4ad"/><circle cx="50.6166" cy="149.1713" r="8" fill="#c6cacf"/><circle cx="50.6049" cy="149.1713" r="4" fill="#fff"/><circle cx="99.6166" cy="149.1713" r="8" fill="#c6cacf"/><circle cx="99.6049" cy="149.1713" r="4" fill="#fff"/><path d="M130.8031,147.2963h-8.7447l-.1455,1.25h8.7952Z" fill="#bf9228"/><path d="M76.6049,114.8413H44.0557a2,2,0,0,0-2,2v16.582a3,3,0,0,0,3,3h11.199a7,7,0,0,1,4.95,2.05l3.7435,3.7434a3,3,0,0,0,2.1213.8787h8.5357a3,3,0,0,0,3-3V116.8413A2,2,0,0,0,76.6049,114.8413Z" fill="#ffc335"/><rect x="234.517" y="157.1713" width="158.4007" height="13" transform="translate(627.4347 327.3426) rotate(-180)" fill="#edeff2"/><circle cx="286.2454" cy="149.1713" r="8" fill="#9aa4ad"/><circle cx="337.6017" cy="149.1713" r="8" fill="#9aa4ad"/><path d="M337.65,140.5159a4.3533,4.3533,0,0,0-.01,1.25c0,.03.01.07.01.1l.07.48,1.2,8.12H262.54l-1.32-8.94v-.03a4.6467,4.6467,0,0,1,4.63-4.95h16.77l6.84-9.46a4.0218,4.0218,0,0,1,3.25-1.66h19.36a4.6455,4.6455,0,0,1,3.86,2.07l5.98,9.05h20.33A4.6306,4.6306,0,0,0,337.65,140.5159Z" fill="#ffdb86"/><path d="M354.6922,150.4668h-15.77l-1.27-8.6c0-.03-.01-.07-.01-.1a4.3533,4.3533,0,0,1,.01-1.25,4.6306,4.6306,0,0,1,4.59-3.97h6.53a4.5558,4.5558,0,0,1,4.51,3.91l.18,1.31Z" fill="#ffc335"/><path d="M354.692,150.4668h-15.77l-1.2-8.12-.07-.48c0-.03-.01-.07-.01-.1a4.3533,4.3533,0,0,1,.01-1.25,4.6306,4.6306,0,0,1,4.59-3.97h6.53a4.5558,4.5558,0,0,1,4.51,3.91l.18,1.31Z" fill="#ffc335"/><path d="M342.19,146.9213h8.7951l-.1455-1.25h-8.7446Z" fill="#bf9228"/><path d="M341.482,140.5167h-3.83a4.3533,4.3533,0,0,0-.01,1.25c0,.03.01.07.01.1l.07.48,3.9-.58Z" fill="#fff"/><polygon points="353.462 141.767 353.29 140.517 350.114 140.517 349.974 141.767 353.537 142.297 353.462 141.767" fill="#fff"/><path d="M288.84,150.4668a8,8,0,0,1-7.9,6.7h-3a8.0189,8.0189,0,0,1-7.9-6.7Z" fill="#9aa4ad"/><circle cx="277.9565" cy="149.1713" r="8" fill="#c6cacf"/><circle cx="277.9448" cy="149.1713" r="4" fill="#fff"/><path d="M339.1315,150.4668a8,8,0,0,1-7.9,6.7h-3a8.0111,8.0111,0,0,1-7.9-6.7Z" fill="#9aa4ad"/><circle cx="328.2461" cy="149.1713" r="8" fill="#c6cacf"/><circle cx="328.2345" cy="149.1713" r="4" fill="#fff"/><path d="M329.941,128.427h-8.5349a1,1,0,0,0-.8343,1.5513l4.34,6.5684h12.25s-2.8024-4.2342-4.3605-6.5874A3.4219,3.4219,0,0,0,329.941,128.427Z" fill="#fff"/><path d="M321.4061,128.427h8.5349a3.4218,3.4218,0,0,1,2.8605,1.5323c1.5581,2.3532-.9095-1.3926-.9095-1.3926a7.0078,7.0078,0,0,0-5.84-3.14h-13.98a4.6453,4.6453,0,0,1,3.86,2.07l5.98,9.05h3l-4.34-6.5684A1,1,0,0,1,321.4061,128.427Z" fill="#ffc335"/><path d="M286.2454,136.5467l5.65-7.7056a1.0013,1.0013,0,0,1,.8106-.4141h19.3657a1.6388,1.6388,0,0,1,1.3642.7334l4.9078,7.3863Z" fill="#fff"/><path d="M287.8015,138.8507h29.5423a1,1,0,0,1,1,1v.9064a1,1,0,0,1-.2929.7071l-2.1741,2.1741a3,3,0,0,0-.8787,2.1213v.9283a1,1,0,0,1-1,1H290.9245a1,1,0,0,1-.91-.5846l-3.123-6.8372A1,1,0,0,1,287.8015,138.8507Z" fill="#ffc335"/><path d="M104.09,170.1713H75.11v6.5H93.09a11,11,0,0,1,11,11v42.96h18.95v-60.46Z" fill="#c6cacf"/><path d="M93.09,176.6713H75.11v53.96h28.98v-42.96A11,11,0,0,0,93.09,176.6713Z" fill="#edeff2"/><path d="M301.861,170.1713h-28.98v6.5h17.98a11,11,0,0,1,11,11v42.96h18.95v-60.46Z" fill="#c6cacf"/><path d="M290.861,176.6713h-17.98v53.96h28.98v-42.96A11,11,0,0,0,290.861,176.6713Z" fill="#edeff2"/><path d="M224.5,158.1714h-6.5166a.5.5,0,0,1,0-1H224.5a.5.5,0,0,1,0,1Zm-13.0342,0H204.949a.5.5,0,0,1,0-1h6.5166a.5.5,0,0,1,0,1Zm-13.0332,0h-6.5171a.5.5,0,0,1,0-1h6.5171a.5.5,0,0,1,0,1Zm-13.0341,0h-6.5171a.5.5,0,1,1,0-1h6.5171a.5.5,0,0,1,0,1Zm-13.0337,0h-6.5171a.5.5,0,0,1,0-1h6.5171a.5.5,0,0,1,0,1Z" fill="#4d5860"/><path d="M392.9178,158.1714h-157.9v3a.5.5,0,0,1-1,0v-3h-3a.5.5,0,0,1,0-1h161.9Zm-158.4,8a.5.5,0,0,0-.5.5v3h-3a.5.5,0,0,0,0,1h3.5a.5.5,0,0,0,.5-.5v-3.5A.5.5,0,0,0,234.5174,166.1714Zm-49.1191,3.5h-6.5171a.5.5,0,1,0,0,1h6.5171a.5.5,0,0,0,0-1Zm-13.0342,0h-6.5166a.5.5,0,0,0,0,1h6.5166a.5.5,0,0,0,0-1Zm26.0683,0h-6.5171a.5.5,0,0,0,0,1h6.5171a.5.5,0,0,0,0-1Zm13.0332,0H204.949a.5.5,0,0,0,0,1h6.5166a.5.5,0,0,0,0-1Zm13.0342,0h-6.5166a.5.5,0,0,0,0,1H224.5a.5.5,0,0,0,0-1Zm-65.1689,0h-3v-3a.5.5,0,0,0-1,0v3.5a.5.5,0,0,0,.5.5h3.5a.5.5,0,0,0,0-1Zm0-12.5H.7029v1h154.628v3a.5.5,0,0,0,1,0v-3h3a.5.5,0,0,0,0-1Z" fill="#4d5860"/><path d="M163.9748,78.7306a1.0216,1.0216,0,0,1,1.1088-.8973l13.968,1.4728a1.0216,1.0216,0,0,1,.8973,1.1089l-.2781,2.6374a1.0216,1.0216,0,0,1-1.1089.8973l-10.439-1.1007-.9095,4.7121a6.6131,6.6131,0,0,1,2.0381-.2739q.9913.03,1.624.096a12.9567,12.9567,0,0,1,3.8048.9652,8.8271,8.8271,0,0,1,2.9084,1.9784,7.7854,7.7854,0,0,1,1.7594,2.9082,8.6822,8.6822,0,0,1,.3551,3.756,9.9192,9.9192,0,0,1-1.19,3.9874,7.6735,7.6735,0,0,1-2.3743,2.5668,8.3587,8.3587,0,0,1-3.27,1.271,14.0385,14.0385,0,0,1-3.8421.102,14.4731,14.4731,0,0,1-4.34-1.0592,8.9022,8.9022,0,0,1-2.876-1.9374,6.8562,6.8562,0,0,1-1.5735-2.5318,7.4639,7.4639,0,0,1-.3956-2.84.8251.8251,0,0,1,.3556-.6943,1.0653,1.0653,0,0,1,.7531-.2021l3.0093.3173a1.0394,1.0394,0,0,1,.643.3117,1.2317,1.2317,0,0,1,.34.6934,3.3129,3.3129,0,0,0,.5588,1.4675,3.733,3.733,0,0,0,1.0245.9719,4.6142,4.6142,0,0,0,1.3662.5759,11.6,11.6,0,0,0,1.6235.284,4.99,4.99,0,0,0,3.5388-.7915,4.0224,4.0224,0,0,0,1.6335-3.0208,3.5377,3.5377,0,0,0-1.0068-2.9233,5.2506,5.2506,0,0,0-3.2959-1.5122,7.4194,7.4194,0,0,0-1.7826-.0183,4.6778,4.6778,0,0,0-1.0995.2784q-.4331.18-.7839.3117a1.9217,1.9217,0,0,1-.8729.0767l-3.4174-.36a1.02,1.02,0,0,1-.8973-1.1088Z" fill="#9aa4ad"/><path d="M204.1439,91.7559q-.0378.71-.1273,1.5639l-.1841,1.7458-.1841,1.7459q-.09.8558-.2017,1.556a17.4764,17.4764,0,0,1-1.0714,3.9257,8.5087,8.5087,0,0,1-2.0455,3.0141,7.8643,7.8643,0,0,1-3.2689,1.7966,14.3319,14.3319,0,0,1-9.1946-.9695,7.8774,7.8774,0,0,1-2.8041-2.437,8.4951,8.4951,0,0,1-1.3719-3.3744,17.4252,17.4252,0,0,1-.2291-4.0628q.074-1.4186.2644-3.2211t.4132-3.2055a17.985,17.985,0,0,1,1.0753-3.9619,8.6549,8.6549,0,0,1,2.0514-3.07,8.1483,8.1483,0,0,1,3.2565-1.8538,11.7451,11.7451,0,0,1,4.6907-.3133,12.3093,12.3093,0,0,1,4.5079,1.2456,7.8748,7.8748,0,0,1,2.8223,2.4389,8.5129,8.5129,0,0,1,1.3718,3.3744A17.4738,17.4738,0,0,1,204.1439,91.7559Zm-15.6487,4.848a7.7942,7.7942,0,0,0,.8448,4.2772,5.4188,5.4188,0,0,0,7.3925.7795,7.7859,7.7859,0,0,0,1.7192-4.0068q.2223-1.4045.4034-3.113t.2547-3.1286a7.7846,7.7846,0,0,0-.8457-4.2773,5.4188,5.4188,0,0,0-7.3925-.7795,7.7938,7.7938,0,0,0-1.7183,4.0069q-.2237,1.4043-.4034,3.113T188.4952,96.6039Z" fill="#9aa4ad"/><path d="M219.7851,95.17a4.183,4.183,0,0,0,1.6222-1.6694,5.38,5.38,0,0,0,.4959-1.6763,3.796,3.796,0,0,0-.6566-2.6791,5.0161,5.0161,0,0,0-6.0679-.6967,5.8364,5.8364,0,0,0-1.6262,2.421,1.1829,1.1829,0,0,1-.5216.6768,1.143,1.143,0,0,1-.694.1716l-2.9349-.3094a1.0685,1.0685,0,0,1-.6952-.3558.8235.8235,0,0,1-.2021-.7531,8.245,8.245,0,0,1,1.1873-3.0679,8.7046,8.7046,0,0,1,2.2613-2.3907,9.5292,9.5292,0,0,1,3.1029-1.4574,10.7926,10.7926,0,0,1,7.64.9184,8.53,8.53,0,0,1,2.6157,2.2667,8.01,8.01,0,0,1,1.3713,2.8489,8.4629,8.4629,0,0,1,.2313,2.9727,13.4113,13.4113,0,0,1-.2977,1.7531,5.4677,5.4677,0,0,1-.6959,1.6167,8.4567,8.4567,0,0,1-1.3731,1.6206,15.53,15.53,0,0,1-2.2862,1.7314l-7.5339,5.5533,10.3265,1.0889a1.02,1.02,0,0,1,.8973,1.1088l-.2781,2.6374a1.02,1.02,0,0,1-1.1088.8974l-17.3482-1.8293a1.0215,1.0215,0,0,1-.8973-1.1088l.2389-2.2656a1.715,1.715,0,0,1,.4875-1.0573,3.5492,3.5492,0,0,1,.7-.5837Z" fill="#9aa4ad"/></svg>