<svg xmlns="http://www.w3.org/2000/svg" viewBox="0 0 392.2148 254.6651"><title>503</title><path d="M113.3557,206.5909a1.0006,1.0006,0,0,1-.1806-1.4033,9.5184,9.5184,0,0,1,2.9453-2.5283,1,1,0,1,1,.9678,1.75,7.5321,7.5321,0,0,0-2.33,2.001,1.0007,1.0007,0,0,1-1.4024.1806Zm2.6367,12.53a1,1,0,0,0,.5567-1.832,7.5647,7.5647,0,0,1-3.26-5.0469,1,1,0,1,0-1.9736.3242,9.5767,9.5767,0,0,0,4.1221,6.3867A1.001,1.001,0,0,0,115.9924,219.1212Zm-3.8837,16.4658H105.11a1,1,0,0,0,0,2h6.9991a1,1,0,0,0,0-2Zm-2.98,17.0781H102.13a1,1,0,0,0,0,2h6.999a1,1,0,0,0,0-2Zm27.9971,0h-6.9991a1,1,0,1,0,0,2h6.9991a1,1,0,0,0,0-2Zm-.13-32.7382a1,1,0,0,0-1.0518,1.7011,7.5647,7.5647,0,0,1,3.4356,4.9278,1,1,0,0,0,.98.8037.98.98,0,0,0,.1972-.0195,1,1,0,0,0,.7842-1.1768A9.57,9.57,0,0,0,136.9954,219.9269Zm1.1274,12.5039a7.5655,7.5655,0,0,1-5.1484,3.0918,1,1,0,1,0,.2578,1.9824,9.5626,9.5626,0,0,0,6.5166-3.91,1,1,0,1,0-1.626-1.164Zm-12.0156,3.1562h-6.999a1,1,0,0,0,0,2h6.999a1,1,0,1,0,0-2Zm-27.9966,0H92.5413a9.643,9.643,0,0,0-1.5894.1319,1,1,0,0,0,.1655,1.9863,1.084,1.084,0,0,0,.1675-.0137,7.5481,7.5481,0,0,1,1.2564-.1045h5.5693a1,1,0,0,0,0-2ZM85.969,239.5831a1,1,0,0,0-1.3857.2813,9.5637,9.5637,0,0,0-1.32,7.4853,1.0006,1.0006,0,0,0,.9716.7676,1.0182,1.0182,0,0,0,.2339-.0273,1,1,0,0,0,.74-1.2051A7.5622,7.5622,0,0,1,86.25,240.97,1.0008,1.0008,0,0,0,85.969,239.5831Zm201.3648-19.0312h4.7788a9.5128,9.5128,0,0,0,2.4521-.3194A1,1,0,1,0,294.05,218.3a7.5252,7.5252,0,0,1-1.9375.252h-4.7788a1,1,0,0,0,0,2Zm-27.9971,0h7a1,1,0,0,0,0-2h-7a1,1,0,0,0,0,2Zm13.9985,0h7a1,1,0,0,0,0-2h-7a1,1,0,0,0,0,2Zm25.8345-4.626a.9912.9912,0,0,0,.4717.1191,1.0013,1.0013,0,0,0,.8823-.5273,9.5672,9.5672,0,0,0,.6221-7.5762,1,1,0,0,0-1.8936.6445,7.5643,7.5643,0,0,1-.4912,5.9864A1,1,0,0,0,299.17,215.9259Zm-50.0171,12.1123a.9536.9536,0,0,0,.1177.0068,1,1,0,0,0,.9917-.8838,7.56,7.56,0,0,1,3.0234-5.1894,1,1,0,1,0-1.1855-1.6113,9.5673,9.5673,0,0,0-3.8242,6.5683A1,1,0,0,0,249.1526,228.0382ZM95.1306,252.6651H92.5413a7.5409,7.5409,0,0,1-3.7212-.98,1,1,0,0,0-.9883,1.7383,9.5444,9.5444,0,0,0,4.71,1.2421h2.5893a1,1,0,1,0,0-2Zm55.9937,0h-7a1,1,0,0,0,0,2h7a1,1,0,0,0,0-2Zm-28.417-32.1132h6.999a1,1,0,0,0,0-2h-6.999a1,1,0,1,0,0,2Zm.42,32.1132h-6.999a1,1,0,1,0,0,2h6.999a1,1,0,1,0,0-2ZM286.3216,236.587a1,1,0,0,0-1-1h-6.9991a1,1,0,0,0,0,2h6.9991A1,1,0,0,0,286.3216,236.587Zm4.7866,16.0781h-7a1,1,0,0,0,0,2h7a1,1,0,0,0,0-2Zm-13.9986,0h-6.999a1,1,0,0,0,0,2h6.999a1,1,0,0,0,0-2ZM272.323,236.587a1,1,0,0,0-1-1h-6.999a1,1,0,0,0,0,2h6.999A1,1,0,0,0,272.323,236.587Zm32.7832,16.0781h-6.999a1,1,0,0,0,0,2h6.999a1,1,0,0,0,0-2Zm7.4444-12.35a1,1,0,0,0,.7329-1.6806,9.5791,9.5791,0,0,0-6.961-3.0489h-.0034a1,1,0,0,0-.0034,2,7.4661,7.4661,0,0,1,5.5019,2.41A.9989.9989,0,0,0,312.5506,240.3155Zm-147.4283,12.35h-6.999a1,1,0,0,0,0,2h6.999a1,1,0,0,0,0-2ZM300.32,236.587a1,1,0,0,0-1-1h-7a1,1,0,0,0,0,2h7A1,1,0,0,0,300.32,236.587Zm-37.209,16.0781h-6.999a1,1,0,0,0,0,2h6.999a1,1,0,0,0,0-2Zm51.7686-7.9306a1.0044,1.0044,0,0,0-1.0674.9287,7.5552,7.5552,0,0,1-2.7769,5.3232,1,1,0,0,0,1.2588,1.5547,9.5641,9.5641,0,0,0,3.5132-6.7392A1,1,0,0,0,314.88,244.7345Zm-107.7623,7.9306h-6.999a1,1,0,0,0,0,2h6.999a1,1,0,1,0,0-2Zm50.2085-15.0888a1,1,0,0,0,.0484-1.999,7.5647,7.5647,0,0,1-5.3833-2.6631,1,1,0,1,0-1.5264,1.291,9.57,9.57,0,0,0,6.8111,3.37C257.2927,237.5763,257.3093,237.5763,257.3259,237.5763Zm-36.21,15.0888h-6.999a1,1,0,0,0,0,2h6.999a1,1,0,1,0,0-2Zm-27.9966,0h-7a1,1,0,1,0,0,2h7a1,1,0,0,0,0-2Zm-13.9985,0h-6.9991a1,1,0,0,0,0,2h6.9991a1,1,0,0,0,0-2Zm69.9922,0h-7a1,1,0,0,0,0,2h7a1,1,0,0,0,0-2Zm-13.9986,0H228.115a1,1,0,0,0,0,2h6.9995a1,1,0,0,0,0-2Zm56.9981-49.1914a7.4676,7.4676,0,0,1,3.0058.6241,1,1,0,0,0,.8-1.834,9.463,9.463,0,0,0-3.8056-.79,1,1,0,0,0,0,2Zm-74.6685,33.1026a1,1,0,0,0-1-1H209.45c-.1695-.001-.3369-.0059-.5034-.0166a1.0172,1.0172,0,0,0-1.0611.9345,1.0005,1.0005,0,0,0,.9351,1.0616c.2046.0127.4111.0195.624.02h7A1,1,0,0,0,217.4441,236.5763Zm.8086-16.0244h6.73l.2388.0029c.0107.001.0209.001.0317.001a1,1,0,0,0,.0308-1.9991c-.1065-.0029-.211-.0039-.3116-.0048h-6.72a1,1,0,0,0,0,2ZM230.8743,234.28a1.0013,1.0013,0,0,0-1.4-.2,7.4543,7.4543,0,0,1-4.502,1.4961h-1.5283a1,1,0,0,0,0,2h1.5283a9.4317,9.4317,0,0,0,5.7012-1.8965A1,1,0,0,0,230.8743,234.28Zm-28.0342.1553a1,1,0,0,0,.7749-1.6309,7.5345,7.5345,0,0,1-1.6836-4.74,7.658,7.658,0,0,1,.0718-1.043,1,1,0,0,0-1.9805-.2754,9.52,9.52,0,0,0,2.0415,7.32A.9963.9963,0,0,0,202.84,234.4357Zm29.6445-6.3711a7.5444,7.5444,0,0,1-.042.7978,1,1,0,0,0,.89,1.0986.9444.9444,0,0,0,.1055.0059,1.0006,1.0006,0,0,0,.9936-.8955,9.657,9.657,0,0,0,.0527-1.0068,9.5071,9.5071,0,0,0-2.3349-6.2432,1,1,0,1,0-1.5088,1.3125A7.5094,7.5094,0,0,1,232.4846,228.0646Zm-27.9135-5.9805a.9949.9949,0,0,0,.5722-.1807,7.467,7.467,0,0,1,4.3008-1.3515h1.8086a1,1,0,0,0,0-2h-1.8086a9.4576,9.4576,0,0,0-5.4473,1.7129,1,1,0,0,0,.5743,1.8193Z" fill="#84919c"/><path d="M93.6151,192.8a8.0315,8.0315,0,0,1-2.82,4.87c-.01.01-.02.01-.02.02-.18.14-.37.28-.56.41a.9074.9074,0,0,1-.13.08,4.9621,4.9621,0,0,1-.49.3c-.06.04-.13.07-.19.11-.15.08-.3.15-.46.22-.08.03-.16.07-.25.1a2.8281,2.8281,0,0,1-.31.11c-.24.09-.49.16-.75.23l-.39.09a1.8553,1.8553,0,0,1-.25.04c-.05.01-.09.02-.14.03-.18.02-.37.05-.55.06a5.0679,5.0679,0,0,1-.55.03h-3.04a8,8,0,0,1-7.9-6.7Z" fill="#9aa4ad"/><path d="M29.1546,199.3756a1.8612,1.8612,0,0,0,.25-.04c-.01.01-.01.01-.02.01A1.81,1.81,0,0,1,29.1546,199.3756Z" fill="#9aa4ad"/><path d="M30.5447,199.0156a.6117.6117,0,0,1-.12.05c-.09.03-.19.07-.29.1-.11.03-.23.06-.34.08C30.0547,199.1756,30.3047,199.1056,30.5447,199.0156Z" fill="#9aa4ad"/><path d="M156.205,158.97v25.15a6.6782,6.6782,0,0,1-6.6967,6.67h-36.47a6.6869,6.6869,0,0,1-6.7068-6.67V158.97a6.6933,6.6933,0,0,1,6.7068-6.67h36.47A6.6846,6.6846,0,0,1,156.205,158.97Z" fill="#edeff2"/><path d="M168.0425,170.0483H156.205v3h11.8375a1.5,1.5,0,1,0,0-3Z" fill="#c6cacf"/><path d="M112.9988,152.3051H123.823a6.6674,6.6674,0,0,1,6.6674,6.6674v25.1517a6.6675,6.6675,0,0,1-6.6675,6.6675H112.9988a6.6674,6.6674,0,0,1-6.6674-6.6674V158.9726A6.6675,6.6675,0,0,1,112.9988,152.3051Z" fill="#c6cacf"/><path d="M147.2447,170.6579h-1.33a1,1,0,0,1-1-1V167.25a1,1,0,0,0-1.8376-.5463l-2.8986,4.4446a1,1,0,0,0,.8376,1.5463h1.33a1,1,0,0,1,1,1v2.4083a1,1,0,0,0,1.8376.5463l2.8987-4.4446A1,1,0,0,0,147.2447,170.6579Z" fill="#c6cacf"/><polygon points="245.462 197.473 230.022 197.473 231.132 193.473 232.252 189.473 233.362 185.473 234.482 181.473 235.412 178.123 240.072 178.123 241.002 181.473 242.122 185.473 243.232 189.473 244.352 193.473 245.462 197.473" fill="#ffc335"/><rect x="226.095" y="197.4736" width="23.2885" height="2" fill="#ffdb86"/><polygon points="244.352 193.473 231.132 193.473 232.252 189.473 243.232 189.473 244.352 193.473" fill="#fff"/><polygon points="242.122 185.473 233.362 185.473 234.482 181.473 241.002 181.473 242.122 185.473" fill="#fff"/><path d="M35.775,192.8a8.0314,8.0314,0,0,1-2.82,4.87c-.01.01-.02.01-.02.02-.18.14-.37.28-.56.41a.9242.9242,0,0,1-.13.08,4.9855,4.9855,0,0,1-.49.3c-.06.04-.13.07-.19.11-.15.08-.3.15-.46.22-.08.03-.16.07-.25.1a2.819,2.819,0,0,1-.31.11c-.24.09-.49.16-.75.23l-.39.09a1.8477,1.8477,0,0,1-.25.04c-.05.01-.09.02-.14.03-.18.02-.37.05-.55.06a5.0679,5.0679,0,0,1-.55.03h-3.04a8,8,0,0,1-7.9-6.7Z" fill="#9aa4ad"/><path d="M27.0346,183.5356a7.92,7.92,0,0,0-7.06,9.26h-.08a9.2463,9.2463,0,0,1-.1-1.3A7.9975,7.9975,0,0,1,27.0346,183.5356Z" fill="#9aa4ad"/><path d="M130.4951,176.31v16.48h-94.7V178.31a4.9954,4.9954,0,0,0-5-5h24.23l10.81-16.63h25.04a5.0019,5.0019,0,0,1,5,5v11.63h31.62A3.0024,3.0024,0,0,1,130.4951,176.31Z" fill="#ffdb86"/><path d="M38.2727,192.7917a8,8,0,0,0,7.9,6.7h3a8.0189,8.0189,0,0,0,7.9-6.7Z" fill="#9aa4ad"/><circle cx="49.1563" cy="191.4963" r="8" fill="#c6cacf"/><circle cx="49.168" cy="191.4963" r="4" fill="#fff"/><path d="M96.1657,192.7917a8,8,0,0,0,7.9,6.7h3a8.0111,8.0111,0,0,0,7.9-6.7Z" fill="#9aa4ad"/><circle cx="107.051" cy="191.4963" r="8" fill="#c6cacf"/><circle cx="107.0627" cy="191.4963" r="4" fill="#fff"/><rect x="130.4905" y="190.7917" width="20.0106" height="2" fill="#ffc335"/><polygon points="55.022 173.312 29.598 173.312 38.457 159.678 63.881 159.678 55.022 173.312" fill="#fff"/><path d="M65.8307,156.6773h-22.71a5,5,0,0,0-4.1927,2.2758l-.4707.7245h25.424l-8.8588,13.634Z" fill="#ffc335"/><path d="M15.2351,173.3117H30.799a5,5,0,0,1,5,5v14.48a0,0,0,0,1,0,0H10.2351a0,0,0,0,1,0,0v-14.48A5,5,0,0,1,15.2351,173.3117Z" fill="#ffc335"/><path d="M79.3831,159.6775H68.69a3,3,0,0,0-2.5156,1.3655l-7.9716,12.2686H79.3831Z" fill="#fff"/><path d="M61.9989,189.2463H95.4612a1,1,0,0,0,.9416-.6634l2.411-6.7439a1,1,0,0,1,.9417-.6634h6.3072a1,1,0,0,0,1-1v-1.8492a1,1,0,0,0-1-1h-54.86a1,1,0,0,0-1,1v1.1915a1,1,0,0,0,1,1h6.2164a1,1,0,0,1,.94.6576l2.7011,7.4131A1,1,0,0,0,61.9989,189.2463Z" fill="#ffc335"/><ellipse cx="30.6061" cy="179.9892" rx="1.4588" ry="2.6628" fill="#fff"/><path d="M31.311,179.9892a2.8867,2.8867,0,0,0-1.0925-2.5677.8943.8943,0,0,1,.3876-.0951c.8057,0,1.4588,1.1921,1.4588,2.6628s-.6531,2.6628-1.4588,2.6628a.8956.8956,0,0,1-.3876-.095A2.887,2.887,0,0,0,31.311,179.9892Z" fill="#edeff2"/><ellipse cx="13.7175" cy="179.7682" rx="1.4588" ry="2.6628" fill="#fff"/><path d="M14.4223,179.7682A2.8868,2.8868,0,0,0,13.33,177.2a.8951.8951,0,0,1,.3876-.0951c.8057,0,1.4588,1.1922,1.4588,2.6629s-.6531,2.6628-1.4588,2.6628a.8951.8951,0,0,1-.3876-.0951A2.8868,2.8868,0,0,0,14.4223,179.7682Z" fill="#edeff2"/><rect x="17.0721" y="177.3738" width="1.25" height="11.3557" fill="#bf9228"/><rect x="25.7908" y="177.3738" width="1.25" height="11.3557" fill="#bf9228"/><rect x="21.4314" y="177.3738" width="1.25" height="11.3557" fill="#bf9228"/><path d="M278.0029,142.93h88.9424a10.7066,10.7066,0,0,1,10.7066,10.7066v35.2646a10.7067,10.7067,0,0,1-10.7067,10.7067H278.0029a10.7066,10.7066,0,0,1-10.7066-10.7066V153.6365A10.7066,10.7066,0,0,1,278.0029,142.93Z" fill="#edeff2"/><path d="M273.5949,153.5456h32.9943a5.707,5.707,0,0,1,5.707,5.707v24.0323a5.707,5.707,0,0,1-5.707,5.707H273.5949a5.7065,5.7065,0,0,1-5.7065-5.7065V159.2521A5.7065,5.7065,0,0,1,273.5949,153.5456Z" transform="translate(118.8235 461.3611) rotate(-90)" fill="#c6cacf"/><path d="M274.312,187.9473V154.5907a5.6688,5.6688,0,0,1,5.79-5.5259h-1.9428a5.6689,5.6689,0,0,0-5.79,5.5259v33.3566a5.6688,5.6688,0,0,0,5.79,5.5254h1.9428A5.6687,5.6687,0,0,1,274.312,187.9473Z" fill="#9aa4ad"/><circle cx="296.3843" cy="171.463" r="2.0292" fill="#9aa4ad"/><circle cx="282.5045" cy="171.463" r="2.0292" fill="#9aa4ad"/><rect y="199.4907" width="392.2148" height="1" fill="#4d5860"/><path d="M345.0354,170.6579h-1.33a1,1,0,0,1-1-1V167.25a1,1,0,0,0-1.8376-.5463l-2.8986,4.4446a1,1,0,0,0,.8376,1.5463h1.33a1,1,0,0,1,1,1v2.4083a1,1,0,0,0,1.8376.5463l2.8987-4.4446A1,1,0,0,0,345.0354,170.6579Z" fill="#c6cacf"/><rect x="201.1595" width="1" height="37.4746" fill="#edeff2"/><rect x="158.175" y="54.2791" width="47.2211" height="1" transform="translate(-1.093 105.7905) rotate(-32.3553)" fill="#edeff2"/><circle cx="201.6594" cy="41.718" r="5.2433" fill="#9aa4ad"/><path d="M201.6594,36.4746a5.1994,5.1994,0,0,0-2.7531.7987,5.2212,5.2212,0,0,0,7.1978,7.1978,5.2213,5.2213,0,0,0-4.4447-7.9965Z" fill="#c6cacf"/><circle cx="202.6508" cy="41.2065" r="1.3108" fill="#edeff2"/><rect x="220.0267" y="33.6252" width="1" height="49.731" transform="translate(25.1878 176.3715) rotate(-45.9643)" fill="#edeff2"/><path d="M167.0133,64.28l75.7174,8.2587a4,4,0,0,1,3.5427,4.41l-5.547,44.235a4,4,0,0,1-4.41,3.5427l-75.7174-8.2587a4,4,0,0,1-3.5427-4.41l5.5471-44.235A4,4,0,0,1,167.0133,64.28Z" fill="#c6cacf"/><path d="M159.8988,63.5044l75.7175,8.2587a4,4,0,0,1,3.5427,4.41l-5.5471,44.235a4,4,0,0,1-4.41,3.5427l-75.7174-8.2586a4,4,0,0,1-3.5427-4.41l5.547-44.235A4,4,0,0,1,159.8988,63.5044Z" fill="#edeff2"/><path d="M164.3964,78.9828a1.0206,1.0206,0,0,1,1.1206-.8839l13.9563,1.6474a1.0214,1.0214,0,0,1,.884,1.1206l-.3111,2.6352a1.0212,1.0212,0,0,1-1.12.8839l-10.43-1.2312-.9691,4.703a6.61,6.61,0,0,1,2.0429-.2481q.9915.042,1.6232.1163a12.9745,12.9745,0,0,1,3.7947,1.0125,8.85,8.85,0,0,1,2.8856,2.0152,7.8017,7.8017,0,0,1,1.7241,2.932,8.6884,8.6884,0,0,1,.3084,3.7622,9.9218,9.9218,0,0,1-1.2406,3.975,7.6858,7.6858,0,0,1-2.407,2.5385,8.3561,8.3561,0,0,1-3.288,1.23,14.0056,14.0056,0,0,1-3.8453.0542,14.49,14.49,0,0,1-4.3281-1.1132,8.9215,8.9215,0,0,1-2.8533-1.9737A6.863,6.863,0,0,1,160.4,99.6055a7.45,7.45,0,0,1-.36-2.8463.8262.8262,0,0,1,.3636-.6908,1.0689,1.0689,0,0,1,.757-.1931l3.0063.3548a1.0407,1.0407,0,0,1,.64.32,1.2381,1.2381,0,0,1,.3316.6975,3.3087,3.3087,0,0,0,.5407,1.4751,3.7255,3.7255,0,0,0,1.013.9852,4.5908,4.5908,0,0,0,1.36.5933,11.6118,11.6118,0,0,0,1.62.3042,4.995,4.995,0,0,0,3.5508-.7473,4.0256,4.0256,0,0,0,1.6715-3.0021,3.542,3.542,0,0,0-.97-2.9371,5.2506,5.2506,0,0,0-3.2792-1.5536,7.4163,7.4163,0,0,0-1.7827-.0409,4.6626,4.6626,0,0,0-1.1036.2648q-.4353.174-.7886.302a1.9194,1.9194,0,0,1-.8734.0665l-3.415-.4031a1.0222,1.0222,0,0,1-.8839-1.1206Z" fill="#9aa4ad"/><path d="M204.4229,92.5141q-.0465.71-.1469,1.5635l-.2059,1.7445-.2059,1.7444q-.1008.8542-.2212,1.5547a17.4724,17.4724,0,0,1-1.12,3.9134,8.5116,8.5116,0,0,1-2.0845,2.99,7.8681,7.8681,0,0,1-3.2933,1.7567,14.3469,14.3469,0,0,1-9.1866-1.0844,7.8859,7.8859,0,0,1-2.7755-2.4731,8.5035,8.5035,0,0,1-1.33-3.3936,17.4741,17.4741,0,0,1-.1788-4.0667q.0918-1.4192.3052-3.2194t.4528-3.2019a18.05,18.05,0,0,1,1.1252-3.951,8.6619,8.6619,0,0,1,2.0906-3.0462,8.1583,8.1583,0,0,1,3.2817-1.8142,11.7518,11.7518,0,0,1,4.6968-.2546,12.3,12.3,0,0,1,4.4942,1.3019,7.8816,7.8816,0,0,1,2.7937,2.4752,8.5156,8.5156,0,0,1,1.3309,3.3937A17.4806,17.4806,0,0,1,204.4229,92.5141ZM188.7067,97.17a7.78,7.78,0,0,0,.792,4.29,5.4217,5.4217,0,0,0,7.3864.8719,7.7953,7.7953,0,0,0,1.769-3.9874q.2406-1.4016.4423-3.109t.2937-3.1266a7.7975,7.7975,0,0,0-.7919-4.29,5.422,5.422,0,0,0-7.3864-.8719,7.7824,7.7824,0,0,0-1.769,3.9875q-.2413,1.402-.4423,3.109T188.7067,97.17Z" fill="#9aa4ad"/><path d="M227.4657,85.4114a1.0206,1.0206,0,0,1,.8839,1.1206l-.311,2.6352a1.2137,1.2137,0,0,1-.3681.7284,7.0945,7.0945,0,0,1-.6105.5486l-6.0939,5.0766a11.2825,11.2825,0,0,1,2.9285,1.1736,7.7339,7.7339,0,0,1,2.1381,1.8143,6.5263,6.5263,0,0,1,1.22,2.4209,7.7937,7.7937,0,0,1,.1779,2.9566,7.552,7.552,0,0,1-1.1664,3.3433,7.406,7.406,0,0,1-2.4157,2.2931,9.9823,9.9823,0,0,1-3.38,1.219,13.7853,13.7853,0,0,1-4.0561.0858,14.9373,14.9373,0,0,1-4.4375-1.1444,10.7516,10.7516,0,0,1-3.0058-1.9545,6.9369,6.9369,0,0,1-1.69-2.42,6.3022,6.3022,0,0,1-.4946-2.5048.8271.8271,0,0,1,.3637-.6912,1.07,1.07,0,0,1,.7569-.1927l2.932.3461a.8383.8383,0,0,1,.5842.3134,3.46,3.46,0,0,1,.42.746,3.4615,3.4615,0,0,0,.4954.9052,3.6691,3.6691,0,0,0,.9.8216,5.9672,5.9672,0,0,0,1.481.6829,11.8069,11.8069,0,0,0,2.2422.4526,6.6307,6.6307,0,0,0,3.7639-.4778,2.926,2.926,0,0,0,1.6964-2.4152,2.51,2.51,0,0,0-1.1093-2.5584,7.9935,7.9935,0,0,0-3.571-1.1557l-3.0807-.3637a1.0213,1.0213,0,0,1-.884-1.12l.3112-2.6357a1.2126,1.2126,0,0,1,.3684-.7278,7.0827,7.0827,0,0,1,.6106-.5491l5.84-4.8428L210.66,88.1321a1.0205,1.0205,0,0,1-.8835-1.12l.3111-2.6353a1.0207,1.0207,0,0,1,1.12-.884Z" fill="#9aa4ad"/><polygon points="294.349 197.473 278.909 197.473 280.019 193.473 281.139 189.473 282.249 185.473 283.369 181.473 284.299 178.123 288.959 178.123 289.889 181.473 291.009 185.473 292.119 189.473 293.239 193.473 294.349 197.473" fill="#ffc335"/><rect x="274.9814" y="197.4736" width="23.2885" height="2" fill="#ffdb86"/><polygon points="293.239 193.473 280.019 193.473 281.139 189.473 292.119 189.473 293.239 193.473" fill="#fff"/><polygon points="291.009 185.473 282.249 185.473 283.369 181.473 289.889 181.473 291.009 185.473" fill="#fff"/><path d="M104.6143,173.31a8.9327,8.9327,0,0,1,5.2978-1.7619h7.3945a1,1,0,1,0,0-2h-7.3945a10.9831,10.9831,0,0,0-8.2468,3.7619Z" fill="#9aa4ad"/></svg>